<?xml version="1.0" encoding="UTF-8"?>
<svg id="uuid-f5a11584-e32e-4b06-a813-3b97a00f1daf" data-name="Layer 2" xmlns="http://www.w3.org/2000/svg" width="56.2" height="56.1" viewBox="0 0 56.2 56.1">
  <defs>
    <style>
      .uuid-e8a7eea1-2ad1-487d-8554-39cfb086c135 {
        fill: #fff;
      }
    </style>
  </defs>
  <g id="uuid-f70758f1-0a90-4895-a8d4-18798810dd08" data-name="Capa 1">
    <g>
      <path class="uuid-e8a7eea1-2ad1-487d-8554-39cfb086c135" d="M0,30.8C0,25,0,19.3,0,13.6,0,7.5,4.1,3.4,10.1,3.5c2,0,4,0,5.9,.3,4.2,.8,7.2,4.3,7.5,8.6,0,.5,0,.9,0,1.4,0,11.6,0,23.2,0,34.8,0,1.2-.1,2.4-1,3.4-.8,.9-1.7,1.5-3,1.5-5.2,0-10.5,0-15.7,0-2.4,0-4-1.8-4-4.3,0-6.1,0-12.1,0-18.2Zm17.6,2c0-1.8,0-3.6,0-5.4,0-1.3-.2-1.5-1.4-1.5-2.9,0-5.8,0-8.7,0-1,0-1.4,.4-1.4,1.4,0,3.7,0,7.3,0,11,0,1,.3,1.4,1.3,1.4,3,0,5.9,0,8.9,0,.9,0,1.3-.4,1.3-1.3,0-1.9,0-3.7,0-5.6ZM1.7,20.3c5-7.2,15.2-7.2,20.2,0v-6.5c-4.7-1-7.5-3.9-8.4-8.7h-3.1c-.9,5-3.9,7.8-8.7,8.7v6.4Zm20.2,25.4c-1.3,.1-2.5,.4-3.7,.4-4.1,0-8.1,0-12.2,0-1.4,0-2.9-.2-4.4-.3,0,1,0,2.3,0,3.6,0,1.4,1,2.3,2.4,2.3,5.1,0,10.2,0,15.4,0,1.5,0,2.4-1.1,2.5-2.5,0-1.2,0-2.4,0-3.5ZM3.5,20.9c.7,1,1.4,2,2.1,3,.2,.2,.6,.4,.9,.4,2.7,0,5.4-.2,8.1,0,2.4,.2,3.9-.5,5-2.6,.4-.7,.4-1.2-.1-1.8-4.3-4.9-12.1-4.5-16,.9Zm17.8,1.7c-1.2,1.4-2.3,2.5-2.1,4.6,.3,3.7,.3,7.5,0,11.3-.2,2.3,1.4,3.3,2.4,4.8,.2-.5,.4-.9,.4-1.4,0-5.2,0-10.5,0-15.7,0-1.2-.4-2.4-.7-3.6Zm-18.6,0h-.4c-.2,1.4-.6,2.8-.6,4.2,0,4.9,0,9.9,0,14.8,0,.5,.2,1.1,.3,2,.9-1.3,1.6-2.3,2.3-3.3,0-.1,.2-.3,.2-.4,0-.7-.2-1.3-.1-2,0-4.1,.1-8.2,.2-12.3,0-.2,0-.4-.1-.5-.6-.9-1.2-1.7-1.8-2.6Zm17.4,21.8c-.8-1.1-1.4-2.1-2.1-3,0-.1-.4-.2-.6-.2-3.8,0-7.5,0-11.3,0-.2,0-.5,.1-.6,.3-.7,.9-1.3,1.8-2,2.9H20.1ZM1.8,12c3.4-.3,6.8-3.8,6.7-6.7-3.2,0-6.5,3.4-6.7,6.7ZM15.4,5.3c0,2.9,3.4,6.6,6.3,6.7-.2-3.1-2.9-6-6.3-6.7Z"/>
      <path class="uuid-e8a7eea1-2ad1-487d-8554-39cfb086c135" d="M32.6,30.8c0-5.8,0-11.6,0-17.3,0-5.1,3.1-9.1,7.9-9.8,2.7-.4,5.5-.3,8.2,0,4.4,.7,7.5,4.7,7.5,9.1,0,12.1,0,24.1,0,36.2,0,2.6-1.7,4.3-4.3,4.3-4.9,0-9.8,0-14.7,0-3,0-4.6-1.6-4.6-4.6,0-6,0-12,0-18Zm6,1.9c0,1.8,0,3.7,0,5.5,0,1.3,.2,1.5,1.4,1.5,2.9,0,5.8,0,8.7,0,1,0,1.4-.4,1.4-1.4,0-3.7,0-7.3,0-11,0-1-.3-1.4-1.3-1.4-3,0-5.9,0-8.9,0-.9,0-1.3,.4-1.3,1.3,0,1.8,0,3.7,0,5.5Zm4.5-27.6c-2.4,6.3-3.3,7.2-8.8,8.8v6.6c2.5-3.6,5.8-5.6,10.1-5.6,4.3,0,7.5,2,10.2,5.6,0-2.2,0-4,0-5.8,0-.7-.2-1-.9-1.2-4-1.1-6.4-3.6-7.3-7.6,0-.3-.1-.6-.2-.8h-3Zm-8.8,40.7c0-.1,0,0,0,0,0,1.1,0,2.2,0,3.3,0,1.6,1,2.5,2.5,2.6,.7,0,1.3,0,2,0,4.3,0,8.6,0,13,0,1.5,0,2.6-.7,2.7-1.9,.1-1.4,0-2.9,0-4.1-1.3,.1-2.5,.3-3.8,.3-4.1,0-8.2,0-12.3,0-1.4,0-2.7-.2-4.1-.4Zm18.5-24.9c-4-5.4-11.3-5.9-15.7-1.1-.3,.4-.8,1.1-.7,1.3,.9,1.1,1.2,2.6,2.7,3.3,0,0,0,0,.1,0,3.5,0,7.1,0,10.6,0,.3,0,.6-.2,.8-.4,.7-1,1.4-2,2.2-3.1Zm-18.1,22.7c.8-1.2,1.5-2,2.1-3,.3-.4,.4-1,.4-1.5,0-4.5,.1-8.9,.2-13.4,0-.2,0-.4-.1-.6-.6-.9-1.2-1.7-1.8-2.6h-.3c-.2,1.3-.6,2.6-.6,3.9,0,5.1,0,10.2,0,15.2,0,.5,.2,1,.3,1.9Zm19.4-.3h.3c0-.6,.2-1.2,.2-1.7,0-4.9,0-9.7,0-14.6,0-1.5-.4-2.9-.6-4.3h-.4c-.8,1.4-1.9,2.3-1.8,4.3,.3,4.2,0,8.5,0,12.7,0,.2,0,.4,.1,.5,.7,1,1.5,2.1,2.2,3.1Zm-17.9,1.1h16.6c-.8-1.1-1.4-2-2.1-2.9-.1-.2-.4-.3-.6-.3-3.8,0-7.5,0-11.3,0-.2,0-.5,0-.6,.2-.7,.9-1.3,1.9-2.1,3ZM41.3,5.3c-3.1-.1-6.8,3.5-6.8,6.7,2.9,.1,6.2-3,6.8-6.7Zm6.7,0c.7,3.6,3.6,6.5,6.5,6.6-.3-3.3-3.3-6.4-6.5-6.6Z"/>
      <path class="uuid-e8a7eea1-2ad1-487d-8554-39cfb086c135" d="M28.9,52.8h-1.5V3.3h1.5V52.8Z"/>
      <path class="uuid-e8a7eea1-2ad1-487d-8554-39cfb086c135" d="M27.4,0h1.5V1.6h-1.5V0Z"/>
      <path class="uuid-e8a7eea1-2ad1-487d-8554-39cfb086c135" d="M28.9,54.6v1.5h-1.5v-1.5h1.5Z"/>
      <path class="uuid-e8a7eea1-2ad1-487d-8554-39cfb086c135" d="M18.7,50v-1.4h1.6v1.4h-1.6Z"/>
      <path class="uuid-e8a7eea1-2ad1-487d-8554-39cfb086c135" d="M4.8,48.5v1.5h-1.5v-1.5h1.5Z"/>
      <path class="uuid-e8a7eea1-2ad1-487d-8554-39cfb086c135" d="M36.1,48.5h1.6v1.5h-1.6v-1.5Z"/>
      <path class="uuid-e8a7eea1-2ad1-487d-8554-39cfb086c135" d="M51.6,50v-1.5h1.5v1.5h-1.5Z"/>
    </g>
  </g>
</svg>