<?xml version="1.0" encoding="UTF-8"?>
<svg id="uuid-469c3257-68ad-43ff-9e82-8ce4fb523630" data-name="Layer 2" xmlns="http://www.w3.org/2000/svg" width="74.4" height="74.4" viewBox="0 0 74.4 74.4">
  <defs>
    <style>
      .uuid-3fd73ff0-3ea6-4069-84f1-4db0d6f86bd3 {
        fill: #fff;
      }
    </style>
  </defs>
  <g id="uuid-e1f4693d-4e3c-4457-8efb-e6d3a5b470ae" data-name="Capa 1">
    <g>
      <path class="uuid-3fd73ff0-3ea6-4069-84f1-4db0d6f86bd3" d="M39.4,42.5c0,.2,0,.3,0,.4,0,6.7,0,13.4,0,20.1,0,.7,.2,1,.8,1.3,1.4,.7,2.7,1.5,4,2.3,1.1,.6,1.5,1.6,1.3,2.6-.3,1.3-1.8,2-3.1,1.4-.9-.5-1.8-1-2.6-1.5-.1,0-.2-.1-.4-.2,0,.5,0,1,0,1.5,0,.7,0,1.5,0,2.2-.1,1.1-1.1,1.9-2.2,1.8-1,0-1.9-.9-2-1.9,0-.5,0-.9,0-1.4,0-3.9,0-7.9,0-11.8,0-.3,0-.4-.3-.4-5.1-.6-9.4-2.8-13-6.4-2.3-2.4-4.1-5.1-5.2-8.4-.6-1.9-1-3.9-1.1-5.9,0-2.3,.2-4.6,.8-6.8,1.1-3.8,3-7.1,5.8-9.8,3.2-3.1,7.1-5.2,11.6-5.9,.4,0,.7-.1,1.1-.1,.3,0,.3,0,.3-.4,0-2.1,0-4.2,0-6.4,0-2.1,0-4.2,0-6.4,0-.7,.1-1.3,.6-1.8,.6-.6,1.3-.9,2.1-.6,.8,.3,1.4,.8,1.5,1.7,0,1.1,0,2.3,0,3.4,0,0,0,.2,0,.3,.1,0,.3-.1,.4-.2,.8-.5,1.6-.9,2.4-1.4,1.3-.7,2.9-.2,3.3,1.3,.3,1-.1,2-1.1,2.5-.9,.6-1.9,1.1-2.8,1.6-.6,.4-1.2,.7-1.9,1.1-.1,0-.2,.3-.2,.4,0,.6,0,1.1,0,1.7,0,6.4,0,12.7,0,19.1,0,0,0,.2,0,.3,0,0,.1,0,.2-.1,4.9-4.9,9.8-9.8,14.7-14.7,.2-.2,.2-.3,.1-.6-.5-1.8-1-3.5-1.4-5.3-.4-1.6,.8-3,2.3-2.8,.9,.1,1.6,.8,1.8,1.7,.2,.9,.5,1.8,.7,2.8,0,.1,0,.2,.1,.4,.1-.1,.2-.2,.3-.3,.6-.6,1.3-1.3,1.9-1.9,.6-.6,1.4-.8,2.2-.5,.8,.3,1.3,.9,1.4,1.8,0,.7-.2,1.3-.7,1.8-.7,.7-1.4,1.4-2.2,2.2,.3,.1,.6,.2,.9,.3,.8,.2,1.5,.4,2.3,.6,1.1,.3,1.8,1.2,1.7,2.3,0,1.1-.9,1.9-2,2-.5,0-.9-.1-1.4-.2-1.6-.4-3.2-.9-4.8-1.3-.1,0-.3,0-.4,.1-.6,.6-1.2,1.2-1.8,1.8-4.3,4.3-8.5,8.5-12.8,12.8,0,0-.2,.1-.3,.2h0c.1,.1,.3,.1,.4,.1,6.9,0,13.8,0,20.6,0,.2,0,.4-.1,.5-.3,.9-1.5,1.8-3.1,2.7-4.6,.5-.8,1.2-1.3,2.1-1.2,1.4,.1,2.3,1.5,1.8,2.8-.2,.5-.5,.9-.7,1.4-.3,.6-.7,1.2-1,1.9,.2,0,.3,0,.4,0,1,0,2,0,3,0,1.2,0,2.2,1,2.2,2.2,0,1.2-1,2.1-2.2,2.1-1.1,0-2.2,0-3.4,0,0,.1,0,.2,.1,.3,.5,.9,1,1.7,1.5,2.6,.4,.8,.5,1.6-.1,2.4-.9,1.2-2.6,1.1-3.5-.1-.5-.8-1-1.6-1.5-2.4-.5-.8-.9-1.7-1.4-2.5,0-.1-.3-.2-.4-.2-6.8,0-13.6,0-20.5,0-.2,0-.4,0-.7,0,.2,.2,.3,.3,.4,.5,4.8,4.8,9.6,9.6,14.4,14.4,.2,.2,.3,.2,.6,.2,1.8-.5,3.5-1,5.3-1.4,1-.3,1.9,.1,2.4,.9,.7,1.2,.2,2.7-1.1,3.2-.8,.3-1.7,.4-2.5,.7-.3,0-.6,.2-.9,.3,.2,.2,.3,.3,.5,.5,.6,.6,1.2,1.1,1.7,1.7,1.2,1.3,.6,3.3-1.1,3.7-.7,.2-1.3,0-1.9-.6-.7-.7-1.5-1.5-2.2-2.3,0,.2-.2,.4-.2,.6-.2,.9-.5,1.8-.7,2.7-.3,1-1.1,1.5-2.1,1.5-.9,0-1.8-.7-2-1.6,0-.4,0-.8,0-1.2,.4-1.8,.9-3.5,1.4-5.3,0-.2,0-.4-.1-.5-4.9-4.8-9.7-9.7-14.6-14.5,0,0-.2-.2-.4-.3Zm-4.4-22.5c-7.4,.7-14.9,7.4-15.3,16.5-.4,10.5,7.9,17.3,15.3,18.1V19.9Z"/>
      <path class="uuid-3fd73ff0-3ea6-4069-84f1-4db0d6f86bd3" d="M5.7,39.4c-1.2,0-2.3,0-3.5,0C.9,39.4,0,38.4,0,37.2c0-1.1,.9-2.1,2.1-2.1,2.4,0,4.7,0,7.1,0,1.2,0,2.1,1,2.1,2.2,0,1.2-1,2.1-2.1,2.1-.6,0-1.2,0-1.8,0-.6,0-1.2,0-1.7,0h0Z"/>
      <path class="uuid-3fd73ff0-3ea6-4069-84f1-4db0d6f86bd3" d="M21.7,69.7c0-.3,.1-.7,.3-1,.8-2.1,1.7-4.1,2.5-6.2,.4-1,1.2-1.5,2.2-1.5,.9,0,1.7,.7,2,1.5,.2,.5,.1,.9,0,1.4-.9,2.2-1.8,4.5-2.7,6.7-.4,.9-1.4,1.4-2.4,1.2-1-.2-1.7-1-1.7-2.1Z"/>
      <path class="uuid-3fd73ff0-3ea6-4069-84f1-4db0d6f86bd3" d="M26.8,13.4c-1.1,0-1.8-.5-2.1-1.4-.6-1.4-1.1-2.8-1.7-4.2-.2-.6-.5-1.2-.7-1.7-.1-.4-.3-.8-.3-1.1-.1-1.1,.5-2,1.5-2.3,1-.3,2.1,.1,2.6,1.1,.4,.9,.8,1.8,1.1,2.7,.5,1.3,1.1,2.6,1.6,4,.4,1.2-.1,2.4-1.3,2.8-.2,0-.5,.1-.6,.1Z"/>
      <path class="uuid-3fd73ff0-3ea6-4069-84f1-4db0d6f86bd3" d="M4.7,52.5c-1,0-1.9-.8-2.1-1.7-.2-1,.3-2,1.2-2.4,1.4-.6,2.9-1.2,4.3-1.8,.7-.3,1.4-.6,2.2-.9,1.4-.5,2.7,.2,3,1.7,.2,.9-.4,1.9-1.3,2.3-1.5,.6-3,1.2-4.6,1.8-.7,.3-1.3,.5-2,.8-.3,0-.6,.1-.8,.2Z"/>
      <path class="uuid-3fd73ff0-3ea6-4069-84f1-4db0d6f86bd3" d="M5,21.8c.2,0,.6,.2,.9,.3,2,.8,4,1.6,6,2.4,.9,.4,1.5,1.1,1.5,2.1,0,.9-.4,1.6-1.2,2-.6,.3-1.3,.3-1.9,0-2.1-.9-4.2-1.7-6.3-2.6-.9-.4-1.4-1-1.4-2,0-1.2,1-2.1,2.4-2.1Z"/>
      <path class="uuid-3fd73ff0-3ea6-4069-84f1-4db0d6f86bd3" d="M10.3,12.1c0-.6,.4-1.2,1.3-1.6,.9-.4,1.7-.3,2.4,.4,1.7,1.7,3.3,3.3,5,5,.7,.7,.8,1.6,.4,2.4-.4,.8-1.2,1.3-2,1.3-.6,0-1.1-.2-1.5-.6-1.7-1.6-3.3-3.3-5-5-.4-.4-.7-1-.6-1.9Z"/>
      <path class="uuid-3fd73ff0-3ea6-4069-84f1-4db0d6f86bd3" d="M10.3,62c0-.5,.2-1,.6-1.4,1.7-1.7,3.4-3.4,5.1-5.1,.8-.7,2-.7,2.8,0,.8,.7,1,1.9,.4,2.8-.1,.2-.2,.3-.4,.4-1.6,1.6-3.2,3.2-4.8,4.8-.7,.7-1.5,1-2.4,.6-.8-.3-1.3-1.1-1.3-2Z"/>
    </g>
  </g>
</svg>