<?xml version="1.0" encoding="UTF-8"?>
<svg id="uuid-3098038d-8bb2-4332-b864-9ba032f229cc" data-name="Layer 2" xmlns="http://www.w3.org/2000/svg" width="60.9" height="43.7" viewBox="0 0 60.9 43.7">
  <defs>
    <style>
      .uuid-adf1053d-72ae-44bb-929a-bb9546b95230 {
        fill: #fff;
      }
    </style>
  </defs>
  <g id="uuid-0085f2ab-df1a-4ee6-9094-c5840bde0ac7" data-name="Capa 1">
    <path class="uuid-adf1053d-72ae-44bb-929a-bb9546b95230" d="M43.6,15.7c-.4,.6-.7,1.2-1.1,1.7-1.7,2.5-3.3,5-5,7.5-1.7,2.6-3.5,5.3-5.2,7.9,0,.1-.2,.3-.3,.4-.4,.7-1,.9-1.8,.9-2.5,0-5,0-7.5,0-.2,0-.3,0-.3,.3-.3,1.4-.7,2.7-1.4,3.8-1.5,2.4-3.6,4.1-6.4,4.9-3.8,1.1-7.3,.4-10.4-1.9-2.1-1.6-3.4-3.8-3.9-6.5-.2-.8-.3-1.7-.3-2.6,0-2.4,.7-4.5,2.1-6.4,1.4-1.9,3.3-3.3,5.6-4.1,2.7-.9,5.4-.9,8.1,.3,.2,0,.2,0,.3-.1,1.8-2.7,3.5-5.4,5.3-8.1,.6-.9,1.1-1.7,1.7-2.6,0-.1,.1-.3,0-.5-.4-1.7-.8-3.4-1.3-5,0,0,0-.2,0-.3-.5,0-.9,0-1.4,0-.5,0-1,0-1.4,0-1.1,0-1.8-.7-1.8-1.7,0-1,.7-1.8,1.8-1.9,.1,0,.2,0,.4,0,3,0,5.9,0,8.9,0,.6,0,1.2,.1,1.6,.6,.5,.6,.6,1.2,.3,1.9-.3,.7-.8,1-1.5,1.1-.9,0-1.8,0-2.7,0-.1,0-.2,0-.4,0,0,.3,.1,.5,.2,.7,.3,1.1,.5,2.1,.8,3.2,0,.2,.1,.2,.3,.2,5,0,10,0,15,0,0,0,.1,0,.2,0-.1-.5-.2-1-.3-1.5-.5-1.9-.9-3.8-1.4-5.7C39.9,1,40.9,0,42.1,0c1.8,0,3.7,0,5.5,0,2.5,0,4.6,1.6,5.3,3.9,.2,.6,.3,1.2,.3,1.9,0,.9-.7,1.6-1.6,1.6-.9,0-1.8-.6-1.9-1.5,0-.2,0-.5,0-.7-.2-.9-.8-1.5-1.8-1.6-1.2,0-2.4,0-3.6,0,.2,.7,.3,1.4,.5,2,1.2,4.8,2.4,9.6,3.6,14.4,0,.2,.1,.5,.2,.7,0,.2,.1,.3,.4,.3,1,0,2,0,3,.3,2.3,.5,4.4,1.4,6,3.2,2.1,2.4,3.2,5.2,3,8.3-.2,4-1.9,7.2-5.4,9.3-1.6,.9-3.3,1.4-5.2,1.5-3.5,.2-6.6-1-9-3.6-1.7-1.8-2.6-4-2.9-6.5-.4-2.8,.3-5.4,1.9-7.7,1.1-1.6,2.7-2.9,4.5-3.7,.4-.2,.4-.2,.3-.6-.4-1.8-.9-3.6-1.3-5.4,0-.1,0-.3-.1-.4Zm5.9,8.9c0,.3,.1,.5,.2,.8,.6,2.2,1.1,4.4,1.7,6.7,.2,.8-.2,1.6-1,1.9-1.1,.5-2.2,0-2.5-1.3-.6-2.3-1.2-4.6-1.7-6.9,0-.1,0-.2-.1-.3-3,1.5-5.1,5.2-3.8,9.4,1.2,3.8,5.1,6,9.2,5,4.2-1,6.4-4.7,5.7-8.9-.7-4.4-4.3-6.3-7.7-6.4Zm-30.6,9.5c-.1,0-.2,0-.3,0-1.6,0-3.2,0-4.8,0-.8,0-1.6,0-2.3,0-1,0-1.7-.6-1.8-1.5,0-.5,.1-.9,.4-1.3,1.2-1.8,2.3-3.5,3.5-5.3,.2-.3,.4-.6,.6-.9-2.1-.9-5.3-.8-7.9,1.6-2.7,2.5-3.3,6-1.7,9.2,1.6,3.3,5.1,4.9,8.6,4.1,3.1-.6,5.5-3.2,5.9-5.8ZM41.1,13.1h-13.6c1.2,5,2.5,9.9,3.7,14.8h0l9.8-14.8Zm-16.6,2.6c-3.3,5-6.5,9.9-9.8,14.9h13.6c-1.2-5-2.5-9.9-3.7-14.9Z"/>
  </g>
</svg>