<?xml version="1.0" encoding="UTF-8"?>
<svg id="uuid-730e11a8-d39b-4130-8e34-9126692bc99e" data-name="Layer 2" xmlns="http://www.w3.org/2000/svg" width="70.3" height="70.1" viewBox="0 0 70.3 70.1">
  <defs>
    <style>
      .uuid-53b90287-7271-4c98-8c65-29d9fcaf146a {
        fill: #fff;
      }
    </style>
  </defs>
  <g id="uuid-5d09166d-cfb8-4e0e-a3aa-bef8375ce7a3" data-name="Capa 1">
    <g>
      <path class="uuid-53b90287-7271-4c98-8c65-29d9fcaf146a" d="M0,38.5C0,31.3,0,24.1,0,16.9,0,9.4,5.1,4.3,12.7,4.3c2.5,0,5-.1,7.4,.3,5.2,.9,9,5.4,9.4,10.7,0,.6,0,1.2,0,1.8,0,14.5,0,29,0,43.5,0,1.5-.1,3-1.2,4.2-1,1.1-2.2,1.8-3.7,1.8-6.5,0-13.1,0-19.6,0-3,0-5-2.3-5-5.4,0-7.6,0-15.2,0-22.8Zm22,2.5c0-2.2,0-4.5,0-6.7,0-1.6-.2-1.9-1.8-1.9-3.6,0-7.2,0-10.8,0-1.3,0-1.8,.5-1.8,1.8,0,4.6,0,9.1,0,13.7,0,1.2,.4,1.8,1.7,1.7,3.7,0,7.4,0,11.1,0,1.1,0,1.7-.4,1.6-1.6,0-2.3,0-4.7,0-7ZM2.2,25.3c6.2-9,19-9,25.2,0v-8.2c-5.9-1.3-9.4-4.9-10.5-10.8h-3.9c-1.1,6.2-4.9,9.8-10.9,10.9v8Zm25.3,31.8c-1.6,.2-3.1,.5-4.7,.5-5.1,0-10.2,0-15.2,0-1.8,0-3.6-.3-5.5-.4,0,1.3,0,2.9,0,4.5,0,1.7,1.2,2.9,3,2.9,6.4,0,12.8,0,19.2,0,1.9,0,3-1.3,3.1-3.2,0-1.5,0-3,0-4.3ZM4.4,26.1c.9,1.3,1.7,2.5,2.6,3.7,.2,.3,.7,.5,1.1,.5,3.4,0,6.8-.2,10.1,0,3,.3,4.9-.6,6.2-3.3,.5-.9,.5-1.4-.1-2.2-5.4-6.2-15.1-5.7-19.9,1.2Zm22.2,2.1c-1.5,1.7-2.9,3.1-2.7,5.7,.4,4.7,.4,9.4,0,14.1-.2,2.9,1.8,4.1,3,6,.3-.6,.5-1.2,.5-1.7,0-6.5,0-13.1,0-19.6,0-1.5-.5-3-.8-4.5Zm-23.2,0h-.5c-.3,1.8-.7,3.5-.7,5.3,0,6.2,0,12.3,0,18.5,0,.7,.2,1.4,.4,2.5,1.2-1.6,2-2.9,2.9-4.1,.1-.1,.3-.3,.3-.5,0-.8-.2-1.6-.2-2.4,0-5.1,.2-10.2,.3-15.3,0-.2,0-.5-.2-.6-.7-1.1-1.5-2.2-2.3-3.2Zm21.8,27.2c-1-1.4-1.8-2.6-2.6-3.7-.1-.2-.5-.2-.7-.2-4.7,0-9.4,0-14.1,0-.3,0-.6,.1-.8,.3-.8,1.1-1.6,2.3-2.6,3.6H25.2ZM2.3,15c4.3-.4,8.6-4.7,8.4-8.4-3.9,0-8.1,4.2-8.4,8.4ZM19.3,6.6c-.1,3.6,4.2,8.2,7.9,8.3-.2-3.9-3.6-7.5-7.9-8.3Z"/>
      <path class="uuid-53b90287-7271-4c98-8c65-29d9fcaf146a" d="M40.8,38.4c0-7.2,0-14.5,0-21.7,0-6.4,3.8-11.3,9.8-12.2,3.3-.5,6.9-.4,10.2,0,5.5,.9,9.4,5.8,9.4,11.4,0,15.1,0,30.2,0,45.3,0,3.2-2.1,5.3-5.3,5.4-6.1,0-12.3,0-18.4,0-3.7,0-5.8-2-5.8-5.8,0-7.5,0-15,0-22.5Zm7.6,2.4c0,2.3,0,4.6,0,6.9,0,1.6,.2,1.9,1.8,1.9,3.6,0,7.2,0,10.8,0,1.3,0,1.8-.5,1.8-1.8,0-4.6,0-9.1,0-13.7,0-1.2-.4-1.8-1.7-1.7-3.7,0-7.4,0-11.1,0-1.1,0-1.7,.4-1.6,1.6,0,2.3,0,4.6,0,6.9ZM53.9,6.4c-3,7.9-4.1,9-11,11v8.2c3.2-4.5,7.3-6.9,12.6-7,5.3,0,9.4,2.5,12.7,7.1,0-2.7,0-5,0-7.2,0-.9-.3-1.2-1.2-1.5-4.9-1.3-8-4.5-9.2-9.5,0-.3-.2-.7-.3-1.1h-3.7Zm-11.1,50.8c0-.2,0,0,0,0,0,1.4,0,2.7,0,4.1,0,1.9,1.2,3.2,3.1,3.3,.8,0,1.6,0,2.5,0,5.4,0,10.8,0,16.2,0,1.9,0,3.3-.8,3.4-2.3,.2-1.8,0-3.6,0-5.2-1.6,.2-3.2,.4-4.7,.4-5.1,0-10.2,0-15.4,0-1.7,0-3.4-.3-5.1-.4Zm23.1-31.1c-4.9-6.7-14.1-7.3-19.7-1.4-.4,.5-1,1.4-.8,1.6,1.1,1.4,1.5,3.3,3.4,4.1,0,0,0,0,.1,0,4.4,0,8.9,0,13.3,0,.3,0,.8-.2,1-.5,.9-1.2,1.8-2.5,2.7-3.8Zm-22.7,28.4c1-1.5,1.9-2.5,2.6-3.7,.3-.5,.5-1.2,.5-1.9,0-5.6,.2-11.1,.2-16.7,0-.3,0-.6-.1-.7-.7-1.1-1.5-2.2-2.3-3.2h-.4c-.3,1.6-.8,3.2-.8,4.9,0,6.4,0,12.7,0,19.1,0,.6,.2,1.3,.4,2.3Zm24.3-.4h.4c.1-.8,.3-1.5,.3-2.2,0-6.1,0-12.2,0-18.2,0-1.8-.5-3.6-.7-5.4h-.5c-.9,1.7-2.4,2.9-2.2,5.4,.4,5.3,0,10.6,0,15.9,0,.2,0,.5,.2,.6,.9,1.3,1.8,2.6,2.7,3.9Zm-22.4,1.4h20.8c-.9-1.4-1.7-2.5-2.6-3.6-.1-.2-.5-.3-.8-.3-4.7,0-9.4,0-14.1,0-.2,0-.6,0-.7,.3-.9,1.2-1.7,2.4-2.6,3.7ZM51.6,6.6c-3.8-.2-8.5,4.3-8.5,8.3,3.7,.1,7.7-3.8,8.5-8.3Zm8.3,0c.9,4.5,4.5,8.1,8.1,8.2-.4-4.1-4.2-8-8.1-8.2Z"/>
      <path class="uuid-53b90287-7271-4c98-8c65-29d9fcaf146a" d="M36.2,66.1h-1.9V4.1h1.9v61.9Z"/>
      <path class="uuid-53b90287-7271-4c98-8c65-29d9fcaf146a" d="M34.3,0h1.9V1.9h-1.9V0Z"/>
      <path class="uuid-53b90287-7271-4c98-8c65-29d9fcaf146a" d="M36.2,68.3v1.9h-1.9v-1.9h1.9Z"/>
      <path class="uuid-53b90287-7271-4c98-8c65-29d9fcaf146a" d="M23.4,62.5v-1.8h2v1.8h-2Z"/>
      <path class="uuid-53b90287-7271-4c98-8c65-29d9fcaf146a" d="M6,60.7v1.8h-1.9v-1.8h1.9Z"/>
      <path class="uuid-53b90287-7271-4c98-8c65-29d9fcaf146a" d="M45.1,60.7h2v1.8h-2v-1.8Z"/>
      <path class="uuid-53b90287-7271-4c98-8c65-29d9fcaf146a" d="M64.5,62.5v-1.8h1.9v1.8h-1.9Z"/>
    </g>
  </g>
</svg>