<?xml version="1.0" encoding="UTF-8"?>
<svg id="uuid-dc493e7f-60b8-42f2-8cb2-68efe0667262" data-name="Layer 2" xmlns="http://www.w3.org/2000/svg" width="83.2" height="66.5" viewBox="0 0 83.2 66.5">
  <defs>
    <style>
      .uuid-3bec0844-75fe-4cf0-8078-d87e03e2949d {
        fill: #fff;
      }
    </style>
  </defs>
  <g id="uuid-4ecc9c30-740a-4ffb-b57c-9fbf0b85f733" data-name="Capa 1">
    <g>
      <path class="uuid-3bec0844-75fe-4cf0-8078-d87e03e2949d" d="M41.6,66.5c-11.7,0-23.4,0-35.2,0-1.6,0-3.1-.3-4.3-1.3-1.2-1-1.9-2.3-2-3.9,0-1.4,0-2.8,0-4.3,0-.9,0-1.8,0-2.7C0,38.3,0,22.3,0,6.3,0,4.5,.4,2.9,1.7,1.6,2.7,.7,3.9,.1,5.3,0,6,0,6.7,0,7.4,0,30.6,0,53.7,0,76.9,0c1.7,0,3.3,.4,4.6,1.7,1,1,1.5,2.1,1.6,3.5,0,.8,0,1.5,0,2.3,0,15.5,0,31.1,0,46.6s0,4.1,0,6.2c0,1.2-.1,2.4-.8,3.5-1,1.7-2.5,2.6-4.4,2.8-.7,0-1.4,0-2.1,0-11.4,0-22.8,0-34.2,0Zm0-8.3h0c11.6,0,23.1,0,34.7,0,.5,0,1,0,1.5,0,.4,0,.9-.2,1.3-.4,1.1-.6,1.4-1.6,1.4-2.8,0-10.7,0-21.3,0-32,0-5.7,0-11.5,0-17.2,0-1.7-1.3-2.9-2.8-3-.5,0-1.1,0-1.6,0-23.1,0-46.2,0-69.3,0-.5,0-1,0-1.5,0-1.2,0-2.3,1-2.4,2.2,0,.5,0,1.1,0,1.6,0,15.9,0,31.9,0,47.8,0,.3,0,.7,0,1,.1,1.4,1,2.4,2.3,2.7,.4,0,.8,0,1.2,0,11.8,0,23.5,0,35.3,0Zm38.8,2.1s0,0-.1,0c-1.4,.7-2.8,.7-4.3,.7-15.1,0-30.1,0-45.2,0-8,0-16.1,0-24.1,0-1.3,0-2.6,0-3.8-.7,0,0,0,0-.1,0,0,.3,0,.5,0,.8,.1,1.5,1.2,2.6,2.7,2.7,.6,0,1.2,0,1.7,0,21.6,0,43.2,0,64.7,0,2,0,4,0,5.9,0,1.7,0,2.8-1.8,2.5-3.4Z"/>
      <path class="uuid-3bec0844-75fe-4cf0-8078-d87e03e2949d" d="M43,35.7c1.8-2.3,4-3.7,6.9-3.8,2.2,0,4.1,.8,5.7,2.3,3.2,3,3.6,7.8,.8,11.2-1.1,1.4-2.6,2.3-4.2,2.8-1.7,.5-3.4,.4-5.1-.3-1.6-.7-3-1.7-4-3.2-.2,.2-.3,.4-.5,.6-1.5,1.9-3.6,3-6,3.2-1.5,.1-2.9-.2-4.2-.9-.3-.2-.5-.2-.8,0-2.5,1.3-5,1.3-7.5,0-.3-.1-.5-.2-.8,0-5,2.6-10.4-.4-11.7-4.9-1-3.3-.2-6.3,2.4-8.6,2.7-2.4,5.9-2.7,9.2-1.2,.3,.1,.5,.1,.8,0,2.4-1.2,4.9-1.2,7.3,0,.4,.2,.8,.2,1.2,0,2.5-1.2,5-1.1,7.5,.2,1.2,.6,2.1,1.6,3,2.7Zm-7,10.1c3,0,5.5-2.3,5.7-5.2,.2-3.4-2.5-5.8-5.3-5.9-3.2-.1-5.7,2.2-5.8,5.4,0,3.2,2.2,5.6,5.4,5.7Zm14.2,0c3.2-.2,5.5-2.7,5.3-5.8-.2-3.2-2.8-5.5-6-5.3-2.9,.2-5.2,2.8-5.1,5.7,.1,3.2,2.7,5.5,5.8,5.4Zm-28.9-10.8c-2.6-.8-5.2,0-6.6,2.3-1.3,2.1-1,5,.7,6.8,1.6,1.7,4.2,2.1,5.9,1.4-2.4-3.5-2.4-7,0-10.5Zm8.3,0c-2.3-.9-5.1,0-6.5,2.1-1.5,2.2-1.2,5.2,.6,7,1.8,1.9,4.5,1.9,5.8,1.3-2.5-3.5-2.5-6.9,0-10.4Z"/>
      <path class="uuid-3bec0844-75fe-4cf0-8078-d87e03e2949d" d="M35.2,26.1c-1.5,0-3,0-4.4,0-3.9,0-7.8,.6-11.6,1.6-1.4,.4-2.8,.9-4.2,1.2-4.2,.9-8.3-1.9-9.2-6.1-.8-3.9,1.3-7.7,5.2-9.2,3.7-1.4,7.4-2.5,11.2-3.2,3.3-.6,6.6-.9,9.9-.9,2.5,0,5,0,7.5,0,2.7,0,5,.9,6.8,2.9,3.7,4.4,2,10-2,12.5-1.4,.9-3,1.3-4.6,1.2-1.5,0-3,0-4.5,0Zm-1.2-13.8c-.2,0-.4,0-.5,0-.6,0-1.3,0-1.9,0-3.5,0-7,.4-10.4,1.1-3.3,.7-6.5,1.7-9.6,3-4.1,1.7-4.1,6.6-1.4,8.8,1.5,1.2,3.2,1.5,5,.9,2.7-.9,5.5-1.6,8.3-2,3.2-.5,6.4-.7,9.6-.7,.3,0,.5,0,.9,0-2.9-3.7-2.9-7.4,0-11.1Zm6.1,11c3,0,5.5-2.3,5.6-5.4,0-3-2.3-5.6-5.3-5.7-3.4-.1-5.8,2.5-5.8,5.4,0,3.3,2.6,5.7,5.5,5.7Z"/>
      <path class="uuid-3bec0844-75fe-4cf0-8078-d87e03e2949d" d="M66.6,38.8c-.5,0-.9,0-1.3,0-.9,0-1.4-.5-1.5-1.4,0-.5,0-1,0-1.5,0-5.1,0-10.2,0-15.3,0-4.8,1.8-9,5.3-12.3,1.1-1,2.3-1.9,3.7-2.6,1-.5,2,0,2.1,1.2,0,.1,0,.3,0,.4,0,10,0,19.9,0,29.9,0,4.9,0,9.9,0,14.8,0,1.7-.8,2.8-2.3,3.2-.2,0-.5,0-.7,0-.9,0-1.8,0-2.7,0-2.1,0-3.3-1.8-2.8-3.8,.2-.8,.2-1.7,.2-2.5,0-3.3,0-6.7,0-10,0,0,0-.2,0-.3Zm5.5-29.3h0c-.6,.5-1.2,1-1.8,1.6-2.6,2.7-3.7,6-3.7,9.6,0,5,0,9.9,0,14.9,0,.3,0,.5,.4,.5,1.6,0,3.2,0,4.7,0,.1,0,.2,0,.4,0V9.5Zm-2.8,29.3c0,.2,0,.4,0,.5,0,3.5,0,6.9,0,10.4,0,.8,0,1.6-.3,2.4-.1,.3,0,.4,.3,.5,.8,0,1.6,0,2.4,0,.1,0,.3-.2,.3-.3,0-.1,0-.3,0-.4,0-4.3,0-8.5,0-12.8,0,0-.1-.3-.2-.3-.8,0-1.7,0-2.6,0Z"/>
      <path class="uuid-3bec0844-75fe-4cf0-8078-d87e03e2949d" d="M26.3,22.2v-2.8c.9,0,1.7,0,2.6,0,0,0,.2,.2,.2,.3,0,.7,0,1.5,0,2.2,0,0-.2,.3-.3,.3-.8,0-1.6,0-2.5,0Z"/>
      <path class="uuid-3bec0844-75fe-4cf0-8078-d87e03e2949d" d="M24.9,18h-2.7c0-.6,0-1.2,0-1.7q0-1,1-1c.5,0,.9,0,1.4,0,.3,0,.4,0,.4,.4,0,.8,0,1.5,0,2.4Z"/>
      <path class="uuid-3bec0844-75fe-4cf0-8078-d87e03e2949d" d="M13.9,18h2.8c0,.9,0,1.7,0,2.6,0,0-.2,.2-.3,.2-.7,0-1.5,0-2.2,0,0,0-.3-.1-.3-.2,0-.8,0-1.7,0-2.5Z"/>
    </g>
  </g>
</svg>