<?xml version="1.0" encoding="UTF-8"?>
<svg id="uuid-35a75c3d-59b8-48ba-a902-08a71cc6deee" data-name="Layer 2" xmlns="http://www.w3.org/2000/svg" width="51.9" height="51.8" viewBox="0 0 51.9 51.8">
  <defs>
    <style>
      .uuid-986e66ea-9c92-450e-8af2-3f20135adb65 {
        fill: #fff;
      }
    </style>
  </defs>
  <g id="uuid-e01be14f-f0ff-4911-90d2-2afeb8a615a0" data-name="Capa 1">
    <g>
      <path class="uuid-986e66ea-9c92-450e-8af2-3f20135adb65" d="M48.1,15.4c0,.5-.1,1-.2,1.4-.6,4.1-2.3,7.7-4.9,10.9-2.2,2.6-4.8,4.6-7.8,5.9-.3,.1-.3,.1-.2,.5,.7,2.2,1.5,4.5,2.2,6.7,0,.2,.2,.5,.2,.7,.1,1-.5,1.9-1.5,2.2-1,.2-2-.3-2.3-1.2-.4-1.2-.8-2.4-1.2-3.5-.4-1.2-.8-2.4-1.2-3.6,0-.2-.2-.2-.4-.2-1,.2-1.9,.3-2.9,.5-1.4,.2-2.9,.1-4.3,0-4-.4-7.6-1.9-10.8-4.3-2.2-1.6-4-3.6-5.5-5.9-1.7-2.6-2.7-5.4-3.2-8.4,0-.4-.1-.9-.2-1.3,0-.1,0-.2,0-.3-.5,0-1.1,0-1.6,0-.5,0-1,0-1.4-.4-.6-.6-.9-1.2-.7-2.1,.2-.8,.8-1.3,1.6-1.5,.4,0,.8,0,1.2,0,.4,0,.7,0,1.1,0,.3-.9,.8-1.6,1.4-2.3,1.1-1.1,2.5-1.7,4-1.8,.2,0,.4,0,.6,0,10.6,0,21.2,0,31.8,0,1.8,0,3.3,.6,4.6,1.9,.5,.6,1.1,1.4,1.3,2.2,.6,0,1.2,0,1.8,0,.4,0,.8,0,1.1,.2,.7,.3,1.2,1.2,1.1,2-.2,1-.8,1.6-1.7,1.8-.3,0-.6,0-.9,0-.4,0-.7,0-1.1,0Zm-22.1-4c-4.9,0-9.9,0-14.8,0-.5,0-1,0-1.5,0-1,0-1.9,.9-1.9,2,0,1.5,.2,3,.5,4.5,.6,2.3,1.6,4.5,3,6.4,.9,1.1,1.8,2.2,2.9,3.1,2.8,2.3,6,3.7,9.6,4.1,1.6,.2,3.2,.2,4.7,0,3.1-.4,5.9-1.6,8.4-3.5,2.3-1.8,4.2-4,5.5-6.7,1.2-2.5,1.8-5.1,1.8-7.9,0-1.2-.9-2-2.1-2-5.4,0-10.7,0-16.1,0Z"/>
      <path class="uuid-986e66ea-9c92-450e-8af2-3f20135adb65" d="M25.9,0C29.9,0,33.9,0,37.9,0c.4,0,.9,0,1.2,.3,.7,.4,1.1,1.3,.9,2.2-.1,.8-.8,1.4-1.7,1.5-.2,0-.4,0-.7,0-7.9,0-15.8,0-23.7,0-.8,0-1.4-.2-1.9-.9-.8-1.2-.1-2.9,1.3-3.1,.2,0,.5,0,.7,0C18.1,0,22,0,25.9,0Z"/>
      <path class="uuid-986e66ea-9c92-450e-8af2-3f20135adb65" d="M16.6,47.8c.4,0,.8,0,1.1,0,1.1,0,1.9,.6,2.1,1.7,.2,1.1-.5,2.2-1.6,2.3-.2,0-.5,0-.7,0-2.5,0-5.1,0-7.6,0-1,0-1.8-.5-2.1-1.4-.4-1.2,.4-2.4,1.6-2.5,.6,0,1.2,0,1.8,0,.4,0,.7,0,1.1,0,.3-1,.6-1.9,.9-2.9,.6-1.7,1.1-3.5,1.7-5.2,.3-.8,.8-1.4,1.7-1.5,1.4-.2,2.6,1.1,2.2,2.5-.3,.9-.6,1.8-.9,2.8-.4,1.3-.9,2.6-1.3,4,0,.1,0,.2,0,.4Z"/>
      <path class="uuid-986e66ea-9c92-450e-8af2-3f20135adb65" d="M38.1,47.8c1.3,0,2.6,0,3.9,0,.5,0,.9,0,1.3,.4,.7,.5,1,1.3,.8,2.2-.2,.8-.9,1.4-1.7,1.5-.2,0-.5,0-.7,0-2.5,0-5,0-7.6,0-1.1,0-1.8-.5-2.1-1.5-.3-1.2,.4-2.4,1.6-2.5,.2,0,.4,0,.7,0,1.2,0,2.5,0,3.7,0Z"/>
    </g>
  </g>
</svg>