<?xml version="1.0" encoding="UTF-8"?>
<svg id="uuid-b81b87a4-8462-431a-b4ad-c151b264f175" data-name="Layer 2" xmlns="http://www.w3.org/2000/svg" width="66.5" height="53.2" viewBox="0 0 66.5 53.2">
  <defs>
    <style>
      .uuid-c2611571-c640-4933-950b-e623c49c5d25 {
        fill: #fff;
      }
    </style>
  </defs>
  <g id="uuid-0eb965b6-5244-43be-8811-b78d7317ad2d" data-name="Capa 1">
    <g>
      <path class="uuid-c2611571-c640-4933-950b-e623c49c5d25" d="M33.3,53.2c-9.4,0-18.8,0-28.1,0-1.3,0-2.5-.2-3.5-1-1-.8-1.6-1.9-1.6-3.1,0-1.1,0-2.3,0-3.4,0-.7,0-1.4,0-2.2C0,30.6,0,17.8,0,5,0,3.6,.3,2.3,1.4,1.3,2.2,.5,3.1,.1,4.2,0,4.8,0,5.4,0,5.9,0,24.4,0,43,0,61.5,0c1.4,0,2.7,.3,3.7,1.3,.8,.8,1.2,1.7,1.3,2.8,0,.6,0,1.2,0,1.8,0,12.4,0,24.9,0,37.3s0,3.3,0,4.9c0,1-.1,1.9-.6,2.8-.8,1.3-2,2.1-3.5,2.2-.6,0-1.1,0-1.7,0-9.1,0-18.3,0-27.4,0Zm0-6.7h0c9.2,0,18.5,0,27.7,0,.4,0,.8,0,1.2,0,.4,0,.7-.1,1-.3,.8-.5,1.1-1.3,1.1-2.2,0-8.5,0-17.1,0-25.6,0-4.6,0-9.2,0-13.8,0-1.4-1.1-2.4-2.2-2.4-.4,0-.9,0-1.3,0-18.5,0-36.9,0-55.4,0-.4,0-.8,0-1.2,0-1,0-1.8,.8-2,1.8,0,.4,0,.9,0,1.3,0,12.7,0,25.5,0,38.2,0,.3,0,.5,0,.8,0,1.1,.8,1.9,1.8,2.1,.3,0,.6,0,1,0,9.4,0,18.8,0,28.2,0Zm31,1.7s0,0,0,0c-1.1,.6-2.3,.5-3.4,.5-12.1,0-24.1,0-36.2,0-6.4,0-12.9,0-19.3,0-1,0-2.1,0-3-.6,0,0,0,0,0,0,0,.2,0,.4,0,.6,.1,1.2,.9,2.1,2.2,2.1,.5,0,.9,0,1.4,0,17.3,0,34.5,0,51.8,0,1.6,0,3.2,0,4.7,0,1.3,0,2.3-1.4,2-2.7Z"/>
      <path class="uuid-c2611571-c640-4933-950b-e623c49c5d25" d="M34.4,28.5c1.4-1.9,3.2-3,5.5-3,1.8,0,3.3,.6,4.5,1.8,2.6,2.4,2.9,6.3,.6,9-.9,1.1-2,1.8-3.4,2.2-1.4,.4-2.7,.3-4.1-.2-1.3-.5-2.4-1.4-3.2-2.6-.2,.2-.3,.3-.4,.5-1.2,1.5-2.9,2.4-4.8,2.6-1.2,0-2.3-.2-3.3-.8-.2-.1-.4-.1-.6,0-2,1-4,1-6,0-.2-.1-.4-.2-.6,0-4,2.1-8.3-.3-9.4-3.9-.8-2.7-.2-5.1,1.9-6.9,2.2-1.9,4.7-2.2,7.4-.9,.2,.1,.4,.1,.6,0,1.9-.9,3.9-1,5.8,0,.3,.2,.6,.2,1,0,2-.9,4-.9,6,.2,1,.5,1.7,1.3,2.4,2.2Zm-5.6,8.1c2.4,0,4.4-1.8,4.5-4.2,.1-2.7-2-4.6-4.2-4.7-2.6,0-4.6,1.8-4.7,4.3,0,2.5,1.8,4.5,4.3,4.6Zm11.4,0c2.5-.1,4.4-2.2,4.3-4.7-.1-2.5-2.2-4.4-4.8-4.2-2.3,.1-4.2,2.3-4.1,4.6,.1,2.5,2.2,4.4,4.6,4.3Zm-23.1-8.6c-2.1-.7-4.1,0-5.3,1.8-1.1,1.7-.8,4,.5,5.4,1.3,1.4,3.3,1.7,4.7,1.1-2-2.8-1.9-5.6,0-8.4Zm6.7,0c-1.8-.7-4.1,0-5.2,1.7-1.2,1.8-.9,4.1,.5,5.6,1.5,1.5,3.6,1.5,4.7,1-2-2.8-2-5.5,0-8.3Z"/>
      <path class="uuid-c2611571-c640-4933-950b-e623c49c5d25" d="M28.2,20.9c-1.2,0-2.4,0-3.5,0-3.1,0-6.2,.5-9.3,1.3-1.1,.3-2.2,.7-3.4,.9-3.4,.7-6.7-1.5-7.4-4.9-.7-3.1,1-6.2,4.2-7.3,2.9-1.1,5.9-2,9-2.6,2.6-.5,5.3-.7,7.9-.7,2,0,4,0,6,0,2.2,0,4,.7,5.4,2.4,3,3.5,1.6,8-1.6,10-1.1,.7-2.4,1-3.7,1-1.2,0-2.4,0-3.6,0Zm-1-11.1c-.2,0-.3,0-.4,0-.5,0-1,0-1.5,0-2.8,0-5.6,.3-8.3,.9-2.6,.6-5.2,1.4-7.7,2.4-3.3,1.3-3.3,5.3-1.1,7.1,1.2,1,2.6,1.2,4,.7,2.2-.7,4.4-1.3,6.7-1.6,2.5-.4,5.1-.6,7.7-.5,.2,0,.4,0,.7,0-2.3-3-2.3-5.9,0-8.9Zm4.9,8.8c2.4,0,4.4-1.9,4.5-4.3,0-2.4-1.8-4.5-4.2-4.5-2.7,0-4.6,2-4.7,4.3,0,2.6,2.1,4.6,4.4,4.5Z"/>
      <path class="uuid-c2611571-c640-4933-950b-e623c49c5d25" d="M53.3,31c-.4,0-.7,0-1,0-.7,0-1.1-.4-1.2-1.1,0-.4,0-.8,0-1.2,0-4.1,0-8.1,0-12.2,0-3.9,1.4-7.2,4.2-9.8,.9-.8,1.9-1.5,3-2.1,.8-.4,1.6,0,1.7,.9,0,.1,0,.2,0,.3,0,8,0,15.9,0,23.9,0,4,0,7.9,0,11.9,0,1.4-.6,2.3-1.8,2.6-.2,0-.4,0-.6,0-.7,0-1.5,0-2.2,0-1.6,0-2.6-1.4-2.3-3,.1-.6,.2-1.3,.2-2,0-2.7,0-5.3,0-8,0,0,0-.1,0-.3Zm4.4-23.4h0c-.5,.4-1,.8-1.4,1.2-2,2.2-2.9,4.8-2.9,7.7,0,4,0,7.9,0,11.9,0,.3,0,.4,.4,.4,1.3,0,2.5,0,3.8,0,0,0,.2,0,.3,0V7.6Zm-2.2,23.5c0,.2,0,.3,0,.4,0,2.8,0,5.6,0,8.3,0,.7,0,1.3-.3,1.9,0,.2,0,.4,.2,.4,.6,0,1.3,0,1.9,0,0,0,.2-.2,.3-.3,0,0,0-.2,0-.4,0-3.4,0-6.8,0-10.2,0,0-.1-.2-.2-.2-.7,0-1.3,0-2.1,0Z"/>
      <path class="uuid-c2611571-c640-4933-950b-e623c49c5d25" d="M21.1,17.8v-2.2c.7,0,1.4,0,2,0,0,0,.2,.1,.2,.2,0,.6,0,1.2,0,1.8,0,0-.1,.2-.2,.2-.6,0-1.3,0-2,0Z"/>
      <path class="uuid-c2611571-c640-4933-950b-e623c49c5d25" d="M19.9,14.4h-2.2c0-.5,0-.9,0-1.4q0-.8,.8-.8c.4,0,.7,0,1.1,0,.2,0,.3,0,.3,.3,0,.6,0,1.2,0,1.9Z"/>
      <path class="uuid-c2611571-c640-4933-950b-e623c49c5d25" d="M11.1,14.4h2.2c0,.7,0,1.4,0,2,0,0-.1,.2-.2,.2-.6,0-1.2,0-1.7,0,0,0-.2-.1-.2-.2,0-.7,0-1.3,0-2Z"/>
    </g>
  </g>
</svg>