<?xml version="1.0" encoding="UTF-8"?>
<svg id="uuid-da951ddb-951c-46e5-9dd9-0bf6174df34a" data-name="Layer 2" xmlns="http://www.w3.org/2000/svg" width="71.3" height="55.7" viewBox="0 0 71.3 55.7">
  <defs>
    <style>
      .uuid-4af07824-d777-47ed-a98d-5b3888bb07c0 {
        fill: #fff;
      }
    </style>
  </defs>
  <g id="uuid-b92f6c34-870e-4a7b-a539-62af5d5bad11" data-name="Capa 1">
    <g>
      <path class="uuid-4af07824-d777-47ed-a98d-5b3888bb07c0" d="M14.1,8.4c-1.1-2.2-1.1-4.2,.4-6.1C15.5,.9,16.8,.2,18.4,0c.4,0,.8,0,1.2,0C30.4,0,41.2,0,52,0c1.8,0,3.3,.5,4.5,1.9,1.6,1.8,1.8,4.1,.7,6.2,0,0,0,.1-.1,.2,.2,0,.3,0,.4,0,1.7,0,3.5,0,5.2,0,2.6,0,4.7,.9,6.5,2.8,3.2,3.5,2.7,9.1-1,12,0,0,0,0-.2,.1,2,1.3,3.1,3.2,3.2,5.6,.1,2.4-.9,4.3-2.7,5.9,1.7,1.4,2.7,3.1,2.7,5.3,0,2.2-.7,4-2.3,5.5,.8,.6,1.5,1.4,1.9,2.4,1.5,3.4-.8,7.3-4.6,7.6-.5,0-1,0-1.6,0-19.6,0-39.2,0-58.8,0-1.7,0-3.2-.5-4.4-1.8-2.2-2.4-1.9-6,.6-8.1,0,0,.2-.1,.3-.3C.8,44.1,0,42.2,0,40.1c0-2.2,1-3.9,2.7-5.3C.9,33.3,0,31.3,0,29c0-2.4,1.2-4.2,3.2-5.6,0,0-.2-.2-.3-.2-1.7-1.5-2.6-3.3-2.9-5.6-.5-3.7,2.2-8.1,6.6-9,.7-.1,1.4-.2,2.1-.2,1.7,0,3.3,0,5,0h.4Zm48.5,2.8c0,.1,0,.2,0,.3,.6,2.2-.7,4.2-2.3,4.9-.7,.3-1.4,.4-2.1,.4-15.1,0-30.3,0-45.4,0-.2,0-.3,0-.5,0-.7,0-1.1,.5-1.2,1.2,0,.2,0,.3,0,.5-.2,.7-.8,1.1-1.5,1.1-.7,0-1.2-.7-1.2-1.4,0-1.6,.7-2.8,2.1-3.6,.8-.5,1.7-.6,2.6-.6,15,0,30.1,0,45.1,0,.2,0,.5,0,.7,0,.3,0,.6-.2,.8-.3,.5-.4,.6-1,.3-1.6-.2-.6-.7-.8-1.3-.8-16.6,0-33.3,0-49.9,0-.4,0-.7,0-1.1,0-3.5,.4-5.8,4.2-4.5,7.5,.9,2.2,2.9,3.5,5.4,3.5,18.1,0,36.3,0,54.4,0,.1,0,.3,0,.4,0,2.2-.3,3.8-1.3,4.7-3.3,.9-2,.6-3.9-.7-5.7-1.1-1.5-2.7-2.1-4.6-2.1ZM30.6,36.2c.6,.8,1,1.7,1.2,2.6,0,0,.2,.2,.3,.2,.8,0,1.6,0,2.3,0,.2,0,.4,0,.7,0,.6,.1,1,.6,1.1,1.2,0,.5-.3,1.1-.9,1.3-.3,0-.5,.1-.8,.1-.8,0-1.6,0-2.4,0-.1,0-.3,0-.3,.2-.2,.9-.6,1.8-1.2,2.5,0,0,0,0,0,0,.1,0,.2,0,.3,0,11.1,0,22.2,0,33.3,0,.7,0,1.4-.2,2-.5,1.7-.9,2.6-2.9,2.1-4.9-.4-1.6-2.2-3-4-3-11.1,0-22.2,0-33.3,0h-.5Zm0-2.8c.2,0,.4,0,.5,0,11,0,22.1,0,33.1,0,.2,0,.5,0,.7,0,1.8-.3,3.3-1.8,3.5-3.6,.3-2.4-1.6-4.7-4-4.7-11.2,0-22.4,0-33.5,0,0,0-.2,0-.3,0,.2,.4,.5,.8,.7,1.2,.2,.4,.3,.8,.4,1.2,0,.3,.2,.4,.4,.3,.8,0,1.6,0,2.4,0,1.1,0,1.8,.8,1.5,1.7-.2,.6-.7,1-1.5,1.1-.8,0-1.6,0-2.5,0-.2,0-.3,0-.4,.3-.3,.7-.6,1.4-.9,2,0,.2-.2,.3-.3,.5Zm5-25h0c5.6,0,11.1,0,16.7,0,1.5,0,2.8-1.3,2.8-2.8,0-1.6-1.2-2.8-2.8-2.8-11.1,0-22.2,0-33.4,0-1.5,0-2.8,1.2-2.8,2.8,0,1.6,1.3,2.8,2.8,2.8,5.6,0,11.1,0,16.7,0ZM16,44.5c3,0,6,0,9,0,.2,0,.5,0,.7,0,2.4-.4,3.9-2.7,3.4-5.1-.4-1.7-2.2-3.2-4-3.2-6,0-12,0-18,0-.3,0-.5,0-.8,0-2.1,.3-3.7,2.3-3.5,4.5,.2,2.5,2.4,3.8,4.1,3.8,3,0,6.1,0,9.1,0Zm0-11.1c3,0,6.1,0,9.1,0,2.2,0,4.1-1.9,4.1-4.1,0-2.4-1.8-4.3-4.2-4.3-6,0-12,0-18,0-.2,0-.5,0-.7,0-2.2,.3-3.8,2.3-3.5,4.5,.2,2.5,2.4,3.8,4.1,3.8,3,0,6,0,9,0Zm15.2,19.5h.4c11.1,0,22.2,0,33.4,0,.3,0,.5,0,.8,0,1.5,0,2.7-1.3,2.7-2.8,0-1.6-1.2-2.8-2.7-2.8-11.4,0-22.8,0-34.1,0-.1,0-.2,0-.4,0,1,1.9,1,3.7,0,5.5Zm-15.2,0h0c3.5,0,7,0,10.5,0,1.5,0,2.7-1.3,2.7-2.7,0-1.6-1.2-2.8-2.8-2.8-7,0-13.9,0-20.9,0-1.5,0-2.8,1.2-2.8,2.8,0,1.5,1.3,2.8,2.8,2.8,3.5,0,7,0,10.4,0Z"/>
      <path class="uuid-4af07824-d777-47ed-a98d-5b3888bb07c0" d="M48,41.8c-.6,0-1.3,0-1.9,0-.9,0-1.5-.7-1.5-1.5,0-.7,.6-1.3,1.4-1.3,1.4,0,2.7,0,4.1,0,.6,0,1.1,.3,1.3,.9,.2,.5,0,1-.3,1.4-.3,.4-.8,.5-1.2,.5-.6,0-1.3,0-1.9,0Z"/>
      <path class="uuid-4af07824-d777-47ed-a98d-5b3888bb07c0" d="M62.7,41.8c-.6,0-1.2,0-1.8,0-.7-.1-1.1-.7-1.1-1.3,0-.6,.4-1.2,1.1-1.3,0,0,.1,0,.2,0,1.1,0,2.3,0,3.4,0,.7,0,1.2,.7,1.2,1.3,0,.6-.5,1.2-1.2,1.3-.6,0-1.2,0-1.8,0Z"/>
      <path class="uuid-4af07824-d777-47ed-a98d-5b3888bb07c0" d="M40.4,41.8c-.7,0-1.4-.7-1.4-1.4,0-.7,.6-1.4,1.3-1.4,.7,0,1.4,.7,1.4,1.4,0,.8-.6,1.4-1.4,1.4Z"/>
      <path class="uuid-4af07824-d777-47ed-a98d-5b3888bb07c0" d="M54.3,40.4c0-.7,.7-1.4,1.4-1.4,.7,0,1.4,.7,1.4,1.4,0,.7-.6,1.4-1.4,1.4-.7,0-1.4-.6-1.4-1.4Z"/>
      <path class="uuid-4af07824-d777-47ed-a98d-5b3888bb07c0" d="M48,30.6c-.6,0-1.3,0-1.9,0-.9,0-1.5-.6-1.5-1.5,0-.7,.6-1.3,1.5-1.3,1.3,0,2.7,0,4,0,.6,0,1.1,.3,1.3,.9,.2,.5,0,1-.2,1.4-.3,.4-.8,.5-1.2,.5-.6,0-1.3,0-1.9,0Z"/>
      <path class="uuid-4af07824-d777-47ed-a98d-5b3888bb07c0" d="M62.7,30.6c-.6,0-1.2,0-1.8,0-.7,0-1.1-.7-1.1-1.3,0-.6,.4-1.2,1.1-1.4,.2,0,.5,0,.7,0,.8,0,1.7,0,2.5,0,.9,0,1.6,.6,1.6,1.4,0,.8-.7,1.4-1.6,1.4-.5,0-.9,0-1.4,0h0Z"/>
      <path class="uuid-4af07824-d777-47ed-a98d-5b3888bb07c0" d="M40.4,30.6c-.7,0-1.4-.6-1.4-1.4,0-.7,.6-1.4,1.4-1.4,.7,0,1.4,.7,1.4,1.4,0,.7-.6,1.4-1.4,1.4Z"/>
      <path class="uuid-4af07824-d777-47ed-a98d-5b3888bb07c0" d="M55.7,30.6c-.7,0-1.4-.7-1.4-1.4,0-.7,.6-1.4,1.3-1.4,.7,0,1.4,.7,1.4,1.4,0,.8-.7,1.4-1.4,1.4Z"/>
    </g>
  </g>
</svg>