<svg  xmlns="http://www.w3.org/2000/svg" width="57" height="44.5" viewBox="0 0 57 44.5">


      <path  d="M11.3,6.7c-.9-1.7-.8-3.4,.3-4.9C12.4,.7,13.4,.1,14.7,0c.3,0,.6,0,1,0C24.3,0,33,0,41.6,0c1.4,0,2.6,.4,3.6,1.5,1.3,1.4,1.5,3.3,.6,5,0,0,0,0,0,.2,.1,0,.2,0,.3,0,1.4,0,2.8,0,4.1,0,2,0,3.8,.7,5.2,2.3,2.5,2.8,2.2,7.3-.8,9.6,0,0,0,0-.1,.1,1.6,1.1,2.5,2.6,2.6,4.5,0,1.9-.7,3.5-2.2,4.7,1.4,1.1,2.1,2.5,2.2,4.2,0,1.7-.6,3.2-1.9,4.4,.7,.5,1.2,1.1,1.5,1.9,1.2,2.7-.7,5.9-3.6,6.1-.4,0-.8,0-1.2,0-15.7,0-31.4,0-47,0-1.4,0-2.6-.4-3.5-1.4-1.8-1.9-1.5-4.8,.5-6.4,0,0,.1-.1,.2-.2C.6,35.3,0,33.8,0,32.1c0-1.7,.8-3.1,2.2-4.2C.7,26.6,0,25.1,0,23.2c0-1.9,1-3.4,2.6-4.5,0,0-.1-.1-.2-.2C1,17.3,.3,15.8,0,14c-.4-3,1.8-6.5,5.3-7.2,.5-.1,1.1-.1,1.7-.1,1.3,0,2.7,0,4,0h.3Zm38.8,2.2c0,.1,0,.2,0,.3,.5,1.7-.5,3.4-1.9,3.9-.5,.2-1.1,.3-1.7,.3-12.1,0-24.2,0-36.4,0-.1,0-.3,0-.4,0-.5,0-.9,.4-1,1,0,.1,0,.3,0,.4-.1,.5-.7,.9-1.2,.9-.5,0-1-.5-1-1.1,0-1.3,.6-2.2,1.7-2.9,.6-.4,1.4-.5,2.1-.5,12,0,24.1,0,36.1,0,.2,0,.4,0,.6,0,.2,0,.5-.1,.6-.3,.4-.3,.4-.8,.3-1.3-.2-.4-.5-.7-1.1-.7-13.3,0-26.6,0-39.9,0-.3,0-.6,0-.9,0-2.8,.3-4.7,3.4-3.6,6,.7,1.8,2.3,2.8,4.3,2.8,14.5,0,29,0,43.5,0,.1,0,.2,0,.3,0,1.7-.2,3-1.1,3.7-2.7,.7-1.6,.5-3.1-.6-4.5-.9-1.2-2.2-1.7-3.7-1.7ZM24.5,29c.5,.7,.8,1.3,1,2.1,0,0,.2,.2,.3,.2,.6,0,1.2,0,1.9,0,.2,0,.4,0,.5,0,.5,.1,.8,.5,.8,1,0,.4-.3,.9-.7,1.1-.2,0-.4,.1-.6,.1-.6,0-1.3,0-1.9,0,0,0-.2,0-.3,.1-.2,.7-.5,1.4-.9,2,0,0,0,0,0,0,0,0,.2,0,.3,0,8.9,0,17.7,0,26.6,0,.6,0,1.1-.1,1.6-.4,1.4-.7,2-2.3,1.7-3.9-.3-1.3-1.8-2.4-3.2-2.4-8.9,0-17.8,0-26.6,0h-.4Zm0-2.2c.2,0,.3,0,.4,0,8.8,0,17.7,0,26.5,0,.2,0,.4,0,.6,0,1.5-.2,2.6-1.4,2.8-2.9,.3-1.9-1.3-3.7-3.2-3.7-8.9,0-17.9,0-26.8,0,0,0-.2,0-.2,0,.2,.3,.4,.6,.5,.9,.1,.3,.3,.7,.4,1,0,.2,.1,.3,.4,.3,.6,0,1.3,0,1.9,0,.9,0,1.4,.7,1.2,1.4-.1,.5-.6,.8-1.2,.8-.7,0-1.3,0-2,0-.2,0-.2,0-.3,.2-.2,.5-.5,1.1-.7,1.6,0,.1-.1,.2-.3,.4ZM28.5,6.7h0c4.4,0,8.9,0,13.3,0,1.2,0,2.3-1,2.3-2.2,0-1.3-.9-2.2-2.2-2.2-8.9,0-17.8,0-26.7,0-1.2,0-2.2,1-2.2,2.2,0,1.2,1,2.2,2.2,2.2,4.4,0,8.9,0,13.3,0Zm-15.7,28.9c2.4,0,4.8,0,7.2,0,.2,0,.4,0,.6,0,1.9-.3,3.2-2.1,2.8-4.1-.3-1.4-1.7-2.6-3.2-2.6-4.8,0-9.6,0-14.4,0-.2,0-.4,0-.6,0-1.7,.2-3,1.8-2.8,3.6,.2,2,1.9,3.1,3.3,3,2.4,0,4.8,0,7.3,0Zm0-8.9c2.4,0,4.9,0,7.3,0,1.8,0,3.3-1.5,3.3-3.3,0-1.9-1.5-3.4-3.4-3.4-4.8,0-9.6,0-14.4,0-.2,0-.4,0-.6,0-1.7,.3-3,1.8-2.8,3.6,.2,2,1.9,3,3.3,3,2.4,0,4.8,0,7.2,0Zm12.2,15.6h.3c8.9,0,17.8,0,26.7,0,.2,0,.4,0,.6,0,1.2,0,2.2-1,2.1-2.2,0-1.3-.9-2.2-2.2-2.2-9.1,0-18.2,0-27.3,0,0,0-.2,0-.3,0,.8,1.5,.8,2.9,0,4.4Zm-12.2,0h0c2.8,0,5.6,0,8.4,0,1.2,0,2.2-1,2.2-2.2,0-1.3-.9-2.3-2.2-2.3-5.6,0-11.2,0-16.7,0-1.2,0-2.2,1-2.2,2.2,0,1.2,1,2.2,2.2,2.2,2.8,0,5.6,0,8.4,0Z"/>
      <path  d="M38.4,33.4c-.5,0-1,0-1.6,0-.7,0-1.2-.5-1.2-1.2,0-.6,.5-1,1.2-1,1.1,0,2.2,0,3.3,0,.5,0,.9,.2,1.1,.7,.2,.4,0,.8-.2,1.1-.3,.3-.6,.4-1,.4-.5,0-1,0-1.5,0Z"/>
      <path  d="M50.2,33.4c-.5,0-1,0-1.4,0-.5,0-.9-.5-.9-1,0-.5,.4-.9,.9-1.1,0,0,0,0,.1,0,.9,0,1.8,0,2.7,0,.6,0,.9,.5,.9,1,0,.5-.4,1-.9,1.1-.5,0-1,0-1.4,0Z"/>
      <path  d="M32.3,33.4c-.6,0-1.1-.5-1.1-1.1,0-.6,.5-1.1,1.1-1.1,.6,0,1.1,.5,1.1,1.1,0,.6-.5,1.1-1.1,1.1Z"/>
      <path  d="M43.4,32.3c0-.6,.5-1.1,1.1-1.1,.6,0,1.1,.5,1.1,1.1,0,.6-.5,1.1-1.1,1.1-.6,0-1.1-.5-1.1-1.1Z"/>
      <path  d="M38.4,24.5c-.5,0-1,0-1.6,0-.7,0-1.2-.5-1.2-1.2,0-.6,.5-1,1.2-1,1.1,0,2.2,0,3.2,0,.5,0,.9,.2,1.1,.7,.2,.4,0,.8-.2,1.1-.3,.3-.6,.4-1,.4-.5,0-1,0-1.5,0Z"/>
      <path  d="M50.2,24.5c-.5,0-.9,0-1.4,0-.5,0-.9-.5-.9-1,0-.5,.3-1,.9-1.1,.2,0,.4,0,.5,0,.7,0,1.3,0,2,0,.7,0,1.3,.5,1.3,1.1,0,.6-.5,1.1-1.3,1.1-.4,0-.7,0-1.1,0h0Z"/>
      <path  d="M32.3,24.5c-.6,0-1.1-.5-1.1-1.1,0-.6,.5-1.1,1.1-1.1,.6,0,1.1,.5,1.1,1.1,0,.6-.5,1.1-1.1,1.1Z"/>
      <path  d="M44.5,24.5c-.6,0-1.1-.5-1.1-1.1,0-.6,.5-1.1,1.1-1.1,.6,0,1.1,.5,1.1,1.1,0,.6-.5,1.1-1.1,1.1Z"/>

</svg>