<?xml version="1.0" encoding="UTF-8"?>
<svg id="uuid-6dc8cb82-332a-4909-9d2a-b4b0a7bdfe8d" data-name="Layer 2" xmlns="http://www.w3.org/2000/svg" width="64.8" height="64.8" viewBox="0 0 64.8 64.8">
  <defs>
    <style>
      .uuid-f9a5b41a-0efe-45c8-baca-8fd6eb10b183 {
        fill: #fff;
      }
    </style>
  </defs>
  <g id="uuid-d1a98ed0-48f8-407b-bfbb-7ac334b64928" data-name="Capa 1">
    <g>
      <path class="uuid-f9a5b41a-0efe-45c8-baca-8fd6eb10b183" d="M60.1,19.2c0,.6-.2,1.2-.2,1.8-.8,5.1-2.8,9.6-6.2,13.6-2.7,3.2-5.9,5.7-9.8,7.4-.4,.2-.4,.2-.3,.6,.9,2.8,1.9,5.6,2.8,8.4,0,.3,.2,.6,.2,.9,.2,1.3-.6,2.4-1.9,2.7-1.2,.3-2.5-.3-2.9-1.5-.5-1.5-1-3-1.5-4.4-.5-1.5-1-3-1.5-4.5,0-.3-.2-.3-.5-.3-1.2,.2-2.4,.4-3.6,.6-1.8,.2-3.6,.1-5.4,0-5-.5-9.5-2.4-13.5-5.3-2.7-2-5-4.5-6.9-7.3-2.1-3.2-3.4-6.7-4-10.5,0-.5-.1-1.1-.2-1.6,0-.1,0-.3,0-.4-.7,0-1.3,0-2,0-.6,0-1.2-.1-1.7-.6-.8-.7-1.1-1.6-.9-2.6,.3-1,1-1.7,2.1-1.8,.5,0,1,0,1.5,0,.4,0,.9,0,1.3,0,.4-1.1,1-2,1.8-2.8,1.4-1.4,3.1-2.1,5.1-2.2,.3,0,.5,0,.8,0,13.3,0,26.5,0,39.8,0,2.2,0,4.2,.7,5.7,2.4,.7,.7,1.3,1.7,1.6,2.7,.7,0,1.5,0,2.3,0,.5,0,1,.1,1.4,.3,.9,.4,1.5,1.5,1.4,2.5-.2,1.2-1,2-2.1,2.2-.4,0-.8,0-1.2,0-.5,0-.9,0-1.4,0Zm-27.7-5.1c-6.2,0-12.3,0-18.5,0-.6,0-1.3,0-1.9,0-1.3,0-2.4,1.2-2.4,2.4,0,1.9,.2,3.8,.7,5.7,.8,2.9,2,5.6,3.8,8,1.1,1.4,2.3,2.7,3.7,3.9,3.5,2.9,7.5,4.6,12,5.2,2,.2,3.9,.2,5.9,0,3.9-.5,7.3-2,10.5-4.4,2.9-2.2,5.3-5,6.8-8.3,1.5-3.1,2.3-6.4,2.2-9.8,0-1.5-1.1-2.6-2.6-2.6-6.7,0-13.4,0-20.2,0Z"/>
      <path class="uuid-f9a5b41a-0efe-45c8-baca-8fd6eb10b183" d="M32.4,0C37.4,0,42.4,0,47.3,0c.5,0,1.1,0,1.6,.4,.9,.5,1.4,1.6,1.2,2.7-.2,1-1,1.8-2.1,1.9-.3,0-.5,0-.8,0-9.9,0-19.8,0-29.7,0-1,0-1.8-.3-2.3-1.1-1-1.5-.1-3.6,1.7-3.9,.3,0,.6,0,.8,0C22.6,0,27.5,0,32.4,0Z"/>
      <path class="uuid-f9a5b41a-0efe-45c8-baca-8fd6eb10b183" d="M20.7,59.7c.5,0,1,0,1.4,0,1.4,0,2.3,.8,2.6,2.1,.3,1.4-.7,2.7-2,2.9-.3,0-.6,0-.8,0-3.2,0-6.3,0-9.5,0-1.3,0-2.3-.7-2.6-1.8-.4-1.5,.5-3,2-3.2,.7,0,1.5,0,2.3,0,.5,0,.9,0,1.4,0,.4-1.2,.8-2.4,1.2-3.6,.7-2.2,1.4-4.3,2.2-6.5,.4-1,1-1.7,2.2-1.9,1.8-.2,3.2,1.4,2.7,3.1-.3,1.2-.7,2.3-1.1,3.4-.5,1.6-1.1,3.3-1.6,4.9,0,.1,0,.3-.1,.4Z"/>
      <path class="uuid-f9a5b41a-0efe-45c8-baca-8fd6eb10b183" d="M47.6,59.7c1.6,0,3.2,0,4.8,0,.6,0,1.2,.1,1.6,.5,.9,.6,1.2,1.7,1,2.7-.2,1-1.1,1.7-2.1,1.8-.3,0-.6,0-.8,0-3.2,0-6.3,0-9.5,0-1.3,0-2.3-.7-2.6-1.8-.4-1.4,.5-2.9,2-3.2,.3,0,.5,0,.8,0,1.6,0,3.1,0,4.7,0Z"/>
    </g>
  </g>
</svg>