<?xml version="1.0" encoding="UTF-8"?>
<svg id="uuid-fbcfc8eb-5ad5-4498-992b-d6960a096428" data-name="Layer 2" xmlns="http://www.w3.org/2000/svg" width="84.9" height="69.7" viewBox="0 0 84.9 69.7">
  <defs>
    <style>
      .uuid-b97cf22e-d384-44af-8a1c-0a91a72aa408 {
        fill: #fff;
      }
    </style>
  </defs>
  <g id="uuid-afec9465-f464-4b95-a4ae-ff0b640e2e06" data-name="Capa 1">
    <g>
      <path class="uuid-b97cf22e-d384-44af-8a1c-0a91a72aa408" d="M42.1,0c3.9,0,7.2,.4,10.6,.9,4.4,.8,8.7,2.2,12.8,4,3.2,1.4,6.2,3.2,9.1,5.2,2.2,1.5,4.3,3.2,6.3,5,1.1,1,2.1,2,3.1,3.1,1.6,1.8,.8,4.6-1.6,5.3-1.3,.4-2.4,0-3.3-.9-2-2-4-4-6.2-5.7-5.5-4.2-11.5-7.2-18.3-8.8-2.9-.7-5.8-1.2-8.7-1.3-2.1,0-4.3-.1-6.4,0-5.5,.2-10.9,1.5-16,3.6-4.2,1.7-8,4-11.6,6.7-2.2,1.7-4.3,3.5-6.2,5.6-.9,1-2.1,1.4-3.4,1-1.3-.4-2.1-1.4-2.3-2.7-.2-1.1,.2-2.1,1-2.9,2.4-2.6,5.1-4.9,7.9-7,3.6-2.6,7.4-4.9,11.5-6.6,3.5-1.4,7-2.6,10.7-3.3C34.9,.4,38.7,0,42.1,0Z"/>
      <path class="uuid-b97cf22e-d384-44af-8a1c-0a91a72aa408" d="M42.6,19.2c4.7,0,9.2,.9,13.6,2.5,5.6,2,10.5,5.3,14.8,9.4,.4,.4,.7,.7,1,1.1,1,1.3,.9,3.1-.2,4.2-1.1,1.2-2.9,1.3-4.2,.4-.5-.3-.9-.8-1.3-1.2-4.3-4.2-9.4-7.1-15.2-8.7-3.2-.9-6.6-1.2-9.9-1.1-2.7,.1-5.4,.5-8.1,1.3-2.7,.8-5.3,2-7.8,3.4-2.5,1.5-4.9,3.3-7,5.3-.2,.2-.5,.5-.7,.7-1.3,1.2-3.3,1.1-4.5-.1-1.2-1.2-1.3-3.1-.1-4.4,1-1.1,2.2-2.2,3.4-3.2,2.5-2,5.1-3.8,8-5.3,2.6-1.3,5.2-2.3,8-3,3.6-1,6.9-1.3,10.3-1.3Z"/>
      <path class="uuid-b97cf22e-d384-44af-8a1c-0a91a72aa408" d="M42.1,38.6c4.4,.1,8.2,1.3,11.8,3.4,1.6,.9,3,2.1,4.4,3.3,1.2,1.1,1.5,2.7,.8,4-1,1.8-3.3,2.3-5,1-.4-.3-.8-.7-1.1-1-3.3-2.8-7.1-4.4-11.4-4.2-3.2,.1-6,1.3-8.6,3.1-.9,.6-1.7,1.4-2.5,2.1-1.7,1.3-3.9,.8-4.9-1-.7-1.3-.5-2.8,.7-4,1.4-1.4,2.9-2.5,4.6-3.5,2.8-1.7,5.8-2.7,9.1-3.2,.8-.1,1.7-.1,2.3-.2Z"/>
      <path class="uuid-b97cf22e-d384-44af-8a1c-0a91a72aa408" d="M42.2,69.7c-2.9,0-5.4-2.4-5.4-5.5,0-3,2.5-5.3,5.3-5.4,3,0,5.5,2.4,5.5,5.4,0,3-2.4,5.4-5.5,5.4Z"/>
    </g>
  </g>
</svg>