<?xml version="1.0" encoding="UTF-8"?>
<svg id="uuid-f22b02da-f1ff-44bb-8490-38d323fa92d0" data-name="Layer 2" xmlns="http://www.w3.org/2000/svg" width="76.1" height="54.6" viewBox="0 0 76.1 54.6">
  <defs>
    <style>
      .uuid-2e7bbf9d-1733-4c24-ba2e-5b3e00fc7495 {
        fill: #fff;
      }
    </style>
  </defs>
  <g id="uuid-4b3a801a-85ea-4193-969f-90674619e995" data-name="Capa 1">
    <path class="uuid-2e7bbf9d-1733-4c24-ba2e-5b3e00fc7495" d="M54.4,19.6c-.5,.8-.9,1.4-1.3,2.1-2.1,3.1-4.1,6.3-6.2,9.4-2.2,3.3-4.3,6.6-6.5,9.8-.1,.2-.2,.3-.3,.5-.5,.8-1.3,1.2-2.2,1.2-3.1,0-6.2,0-9.4,0-.3,0-.3,.1-.4,.3-.3,1.7-.9,3.3-1.8,4.8-1.9,3.1-4.5,5.2-8,6.1-4.7,1.3-9.1,.6-13.1-2.4-2.7-2-4.3-4.8-4.9-8.1-.2-1.1-.4-2.1-.4-3.2,0-3,.9-5.6,2.7-8,1.8-2.4,4.1-4.2,7-5.1,3.4-1.2,6.8-1.1,10.1,.4,.2,.1,.3,0,.4-.1,2.2-3.4,4.4-6.7,6.6-10.1,.7-1.1,1.4-2.1,2.1-3.2,.1-.2,.1-.4,.1-.6-.5-2.1-1-4.2-1.6-6.3,0,0,0-.2,0-.3-.6,0-1.2,0-1.8,0-.6,0-1.2,0-1.8,0-1.3,0-2.3-.9-2.3-2.1,0-1.3,.9-2.2,2.2-2.3,.1,0,.3,0,.4,0,3.7,0,7.4,0,11.1,0,.8,0,1.5,.2,2,.8,.6,.7,.7,1.5,.4,2.4-.4,.8-1,1.3-1.9,1.3-1.1,0-2.3,0-3.4,0-.1,0-.3,0-.5,0,0,.3,.1,.6,.2,.9,.3,1.3,.7,2.6,1,4,0,.2,.1,.3,.4,.3,6.2,0,12.5,0,18.7,0,0,0,.2,0,.3,0-.1-.6-.3-1.2-.4-1.8-.6-2.4-1.1-4.8-1.8-7.1C49.8,1.3,51.2,0,52.7,0c2.3,0,4.6,0,6.9,0,3.1,0,5.8,1.9,6.7,4.8,.2,.7,.3,1.6,.4,2.3,0,1.1-.9,2-2,2.1-1.2,0-2.2-.8-2.4-1.8,0-.3,0-.6-.1-.9-.3-1.1-1.1-1.9-2.3-2-1.5,0-3,0-4.6,0,.2,.9,.4,1.7,.6,2.6,1.5,6,3,12,4.5,18,0,.3,.2,.6,.2,.9,0,.3,.2,.4,.4,.3,1.3-.1,2.5,0,3.8,.3,2.9,.6,5.4,1.8,7.4,4,2.7,3,4,6.4,3.7,10.4-.3,5-2.4,9-6.8,11.6-2,1.2-4.2,1.8-6.5,1.9-4.4,.3-8.2-1.2-11.2-4.5-2.1-2.3-3.2-5-3.6-8.1-.4-3.5,.3-6.8,2.3-9.7,1.4-2.1,3.3-3.6,5.6-4.7,.5-.2,.5-.2,.4-.8-.6-2.2-1.1-4.5-1.7-6.7,0-.2-.1-.3-.2-.6Zm7.4,11.2c0,.3,.2,.7,.2,1,.7,2.8,1.4,5.6,2.1,8.3,.2,1-.3,2-1.2,2.4-1.3,.6-2.7-.1-3.1-1.6-.7-2.9-1.4-5.8-2.2-8.7,0-.1,0-.2-.1-.4-3.8,1.8-6.4,6.6-4.7,11.7,1.6,4.8,6.3,7.6,11.5,6.3,5.2-1.2,8-5.9,7.2-11.1-.9-5.5-5.4-7.9-9.7-8Zm-38.2,11.9c-.1,0-.3,0-.4,0-2,0-4,0-6.1,0-1,0-2,0-2.9,0-1.3,0-2.1-.8-2.3-1.9,0-.6,.1-1.2,.5-1.7,1.5-2.2,2.9-4.4,4.4-6.6,.2-.4,.5-.7,.7-1.1-2.6-1.2-6.6-1-9.9,1.9-3.4,3.1-4.1,7.5-2.2,11.5,2,4.1,6.3,6.1,10.7,5.2,3.8-.8,6.8-4,7.4-7.3Zm27.7-26.3h-17c1.6,6.2,3.1,12.4,4.6,18.5h.1l12.3-18.5Zm-20.7,3.2c-4.1,6.3-8.2,12.4-12.3,18.6h16.9c-1.6-6.2-3.1-12.4-4.7-18.6Z"/>
  </g>
</svg>