<svg  xmlns="http://www.w3.org/2000/svg" width="67.9" height="55.8" viewBox="0 0 67.9 55.8">


      <path  d="M33.7,0c3.1,0,5.8,.3,8.5,.8,3.6,.6,7,1.7,10.3,3.2,2.6,1.1,5,2.5,7.3,4.2,1.8,1.2,3.5,2.5,5,4,.8,.8,1.7,1.6,2.5,2.5,1.3,1.5,.6,3.7-1.2,4.2-1,.3-1.9,0-2.7-.7-1.6-1.6-3.2-3.2-5-4.5-4.4-3.3-9.2-5.8-14.6-7.1-2.3-.6-4.6-1-7-1-1.7,0-3.4-.1-5.1,0-4.4,.2-8.7,1.2-12.8,2.9-3.3,1.4-6.4,3.2-9.3,5.3-1.8,1.3-3.4,2.8-4.9,4.5-.8,.8-1.7,1.1-2.7,.8-1.1-.3-1.7-1.1-1.8-2.1-.2-.9,.2-1.6,.8-2.3,1.9-2.1,4-3.9,6.3-5.6,2.9-2.1,5.9-3.9,9.2-5.3,2.8-1.1,5.6-2.1,8.6-2.7C27.9,.3,31,0,33.7,0Z"/>
      <path  d="M34.1,15.4c3.8,0,7.4,.7,10.9,2,4.5,1.6,8.4,4.2,11.9,7.5,.3,.3,.6,.6,.8,.9,.8,1,.7,2.5-.2,3.4-.9,.9-2.3,1.1-3.4,.3-.4-.3-.7-.6-1.1-.9-3.5-3.3-7.5-5.7-12.1-6.9-2.6-.7-5.2-1-7.9-.9-2.2,0-4.4,.4-6.5,1-2.2,.7-4.3,1.6-6.2,2.7-2,1.2-3.9,2.6-5.6,4.3-.2,.2-.4,.4-.6,.5-1.1,.9-2.6,.9-3.6-.1-1-.9-1-2.5-.1-3.5,.8-.9,1.7-1.8,2.7-2.6,2-1.6,4.1-3.1,6.4-4.2,2.1-1,4.2-1.8,6.4-2.4,2.9-.8,5.6-1,8.3-1.1Z"/>
      <path  d="M33.7,30.9c3.5,.1,6.6,1.1,9.4,2.8,1.3,.8,2.4,1.6,3.5,2.7,1,.9,1.2,2.2,.7,3.2-.8,1.5-2.6,1.9-4,.8-.3-.2-.6-.5-.9-.8-2.6-2.3-5.6-3.5-9.2-3.4-2.5,.1-4.8,1-6.9,2.5-.7,.5-1.3,1.1-2,1.7-1.3,1-3.1,.7-3.9-.8-.6-1.1-.4-2.3,.5-3.2,1.1-1.1,2.3-2,3.7-2.8,2.2-1.3,4.7-2.2,7.3-2.5,.7,0,1.4-.1,1.9-.2Z"/>
      <path  d="M33.8,55.8c-2.3,0-4.3-1.9-4.3-4.4,0-2.4,2-4.3,4.3-4.3,2.4,0,4.4,1.9,4.4,4.3,0,2.4-1.9,4.3-4.4,4.4Z"/>
  
</svg>