<?xml version="1.0" encoding="UTF-8"?>
<svg id="uuid-bde34536-e48c-4a25-8b68-ba55e775ac16" data-name="Layer 2" xmlns="http://www.w3.org/2000/svg" width="101.2" height="60.7" viewBox="0 0 101.2 60.7">
  <defs>
    <style>
      .uuid-cfd5ae5a-be6f-4c5d-b13e-546445d14ecb {
        fill: #fff;
      }
    </style>
  </defs>
  <g id="uuid-c33d4ff6-13d9-4b3f-bdaf-eba41f23d6f3" data-name="Capa 1">
    <g>
      <path class="uuid-cfd5ae5a-be6f-4c5d-b13e-546445d14ecb" d="M62.4,23.6h.7c8.5,0,17,0,25.5,0,.2,0,.3,0,.5,0,1.2,0,2,.7,2,2,0,.4,0,.9,0,1.4,.2,0,.4,0,.6,0,1.3,0,2.7,0,4,.2,2.7,.4,4.9,2.7,5.3,5.5,.3,2,.3,4,0,6-.5,2.7-3,4.9-5.7,5.1-1.6,.1-3.1,0-4.7,.1-.3,0-.5,0-.6,.4-.9,2.4-2.3,4.5-4.4,6.1,0,0,0,0-.2,.2h.7c4.3,0,8.6,0,12.9,0,.5,0,1,.2,1.5,.4,.6,.3,.7,1,.7,1.6-.1,3.8-3,7.2-6.8,7.8-.8,.1-1.6,.2-2.4,.2-27.7,0-55.4,0-83.1,0-2.7,0-5-.9-6.8-2.9-1.2-1.4-1.9-3.1-2.1-4.9-.1-1.5,.6-2.3,2.1-2.3,1.4,0,2.7,0,4.1,0,.2,0,.3,0,.6,0v-.6c0-9.8,0-19.6,0-29.4,0-.4,0-.6-.5-.8-3.3-1.1-5-3.5-5.8-6.8C-.5,9.5,0,6.3,2.2,3.4,3.9,1.2,6,0,8.7,0c.3,0,.5,0,.8,0C26.3,0,43,0,59.7,0c4.4,0,6.9,2.2,8.4,5.6,1.7,4,1.2,7.8-1.3,11.4-1,1.5-2.4,2.4-4.1,2.9-.1,0-.4,.2-.4,.4,0,1.1,0,2.2,0,3.3Zm-3.4,0c0-1.6,0-3.1,0-4.5,0-1.4,.6-2.1,2-2.2,1,0,1.8-.5,2.5-1.1,2.7-2.6,3-7.8,.5-10.7-1-1.1-2.1-1.7-3.6-1.7-13.3,0-26.5,0-39.8,0-1.7,0-2.9,.7-3.9,2-1.1,1.5-1.5,3.2-1.5,5.1,0,2.8,2,6.5,5.3,6.5,.7,0,1.2,.5,1.3,1.2,0,.3,0,.6,0,.9,0,10.2,0,20.5,0,30.7v.7H59.1c-.2-.3-.3-.6-.4-.8-3.2-3.1-4.8-6.9-4.8-11.3,0-4.2,0-8.4,0-12.6,0-1.5,.7-2.2,2.2-2.2,.9,0,1.9,0,2.8,0Zm28.7,3.4h-30.3v.6c0,3.6,0,7.3,0,10.9,0,1.1,.1,2.3,.4,3.3,1.3,4.5,4.2,7.3,8.7,8.4,.5,.1,1.1,.2,1.6,.2,3,0,6.1,.2,9.1,0,6-.6,10.4-5.6,10.4-11.5,0-3.8,0-7.6,0-11.4v-.5ZM14,3.4c-1.8,0-3.5,0-5.2,0-1.7,0-3,.7-4,2.1-1.6,2.4-1.9,5-.9,7.7,.8,2.1,2.1,3.6,4.5,3.8,.6,0,1.1,.3,1.4,.8,.2,.4,.3,.9,.3,1.4,0,10.2,0,20.5,0,30.7v.6h8.4c0,0,0-.1,0-.2,0-10,0-20,0-29.9,0-.3-.1-.4-.4-.5-1.2-.4-2.3-1-3.2-1.9-3.1-3-4.4-9.3-1.5-13.7,.2-.3,.3-.5,.5-.9ZM97.5,54H3.7c.6,1.9,2.7,3.3,4.8,3.3,27.8,0,55.6,0,83.4,0,.3,0,.7,0,1,0,.9,0,1.7-.2,2.4-.7,1-.6,1.8-1.5,2.2-2.7Zm-6.5-23.6v10.1c1.1,0,2.3,0,3.5,0,1.5,0,3-1.1,3.1-2.6,.2-1.5,.2-3,0-4.5-.2-1.7-1.5-3-3-3-1.2,0-2.4,0-3.7,0Z"/>
      <path class="uuid-cfd5ae5a-be6f-4c5d-b13e-546445d14ecb" d="M73.5,18.3c.3-.7,.4-1.4,.8-2.1,.4-.7,.4-1.3,0-2-.9-1.6-1-3.2,0-4.9,.2-.3,.3-.7,.3-1,.2-1,.9-1.6,1.8-1.5,.9,.1,1.6,1,1.5,2-.1,.7-.3,1.4-.7,2.1-.4,.7-.4,1.2,0,1.9,.6,1,.9,2.1,.7,3.2-.1,.6-.4,1.2-.7,1.8,0,.3-.2,.5-.2,.8-.1,1-.8,1.7-1.7,1.7-1,0-1.7-.8-1.7-1.9h-.1Z"/>
      <path class="uuid-cfd5ae5a-be6f-4c5d-b13e-546445d14ecb" d="M83.7,18.3c.3-.7,.4-1.4,.8-2,.4-.7,.5-1.3,0-2.1-.9-1.6-1-3.2,0-4.9,.2-.3,.3-.7,.3-1,.2-1,.9-1.6,1.8-1.5,.9,.1,1.6,1,1.5,2-.1,.7-.3,1.4-.7,2.1-.4,.7-.4,1.2,0,1.9,.6,1,.9,2.1,.7,3.2-.1,.6-.4,1.2-.6,1.8-.1,.3-.2,.5-.3,.8-.1,1-.8,1.7-1.7,1.7-1,0-1.7-.8-1.7-1.9h-.1Z"/>
      <path class="uuid-cfd5ae5a-be6f-4c5d-b13e-546445d14ecb" d="M30.3,35.4c.2-.4,.4-.8,.7-1.2,.8-.9,1.7-1.7,2.6-2.6,4.7-4.7,9.4-9.4,14-14,.5-.5,1.1-.8,1.8-.6,.6,.2,1,.6,1.2,1.3,.1,.6-.1,1.1-.5,1.5-.6,.6-1.3,1.3-1.9,1.9-4.9,4.9-9.7,9.7-14.6,14.6-.6,.6-1.2,1-2,.7-.6-.2-1.1-.9-1.2-1.6Z"/>
      <path class="uuid-cfd5ae5a-be6f-4c5d-b13e-546445d14ecb" d="M40.5,38.8c0-.6,.4-1,.8-1.4,1.9-1.9,3.7-3.7,5.6-5.6,.3-.3,.6-.6,.9-.9,.7-.6,1.6-.6,2.3,0,.6,.6,.7,1.5,0,2.2-.6,.6-1.2,1.2-1.7,1.8-1.6,1.6-3.2,3.2-4.8,4.8-.5,.6-1.1,.9-2,.7-.6-.2-1.1-.9-1.1-1.5Z"/>
      <path class="uuid-cfd5ae5a-be6f-4c5d-b13e-546445d14ecb" d="M28.7,23.7c0-.6,.3-1,.7-1.4,1.9-1.9,3.8-3.8,5.7-5.6,.3-.3,.6-.6,.9-.9,.7-.6,1.6-.6,2.3,0,.6,.6,.7,1.5,0,2.2-.7,.8-1.5,1.5-2.2,2.2-1.4,1.4-2.8,2.9-4.3,4.3-.3,.3-.7,.6-1.2,.7-.9,.3-1.9-.5-1.9-1.5Z"/>
    </g>
  </g>
</svg>