<svg  xmlns="http://www.w3.org/2000/svg" width="81" height="48.5" viewBox="0 0 81 48.5">

      <path " d="M49.9,18.9h.6c6.8,0,13.6,0,20.4,0,.1,0,.3,0,.4,0,1,0,1.6,.6,1.6,1.6,0,.3,0,.7,0,1.1,.2,0,.3,0,.5,0,1.1,0,2.2,0,3.2,.1,2.2,.3,3.9,2.1,4.2,4.4,.2,1.6,.2,3.2,0,4.8-.4,2.1-2.4,3.9-4.5,4.1-1.2,0-2.5,0-3.7,0-.2,0-.4,0-.5,.3-.7,1.9-1.9,3.6-3.5,4.9,0,0,0,0-.2,.2h.6c3.4,0,6.9,0,10.3,0,.4,0,.8,.1,1.2,.3,.5,.3,.6,.8,.6,1.3-.1,3.1-2.4,5.7-5.4,6.3-.6,.1-1.3,.2-1.9,.2-22.2,0-44.3,0-66.5,0-2.2,0-4-.7-5.4-2.3-1-1.1-1.5-2.5-1.7-3.9-.1-1.2,.5-1.8,1.7-1.8,1.1,0,2.2,0,3.2,0,.1,0,.3,0,.5,0v-.5c0-7.8,0-15.7,0-23.5,0-.3,0-.5-.4-.6C2.4,14.9,1,13,.3,10.4-.4,7.6,0,5,1.8,2.7,3.1,1,4.8,0,7,0c.2,0,.4,0,.6,0,13.4,0,26.8,0,40.2,0,3.5,0,5.6,1.7,6.7,4.5,1.4,3.2,1,6.2-1,9.1-.8,1.2-2,1.9-3.3,2.4-.1,0-.3,.2-.3,.3,0,.9,0,1.7,0,2.7Zm-2.7,0c0-1.3,0-2.4,0-3.6,0-1.1,.5-1.6,1.6-1.7,.8,0,1.5-.4,2-.9,2.2-2.1,2.4-6.3,.4-8.5-.8-.9-1.7-1.3-2.9-1.3-10.6,0-21.2,0-31.8,0-1.3,0-2.4,.6-3.1,1.6-.9,1.2-1.2,2.6-1.2,4.1,0,2.2,1.6,5.2,4.3,5.2,.6,0,.9,.4,1.1,1,0,.2,0,.5,0,.7,0,8.2,0,16.4,0,24.5v.5h29.8c-.1-.3-.2-.5-.4-.6-2.5-2.5-3.8-5.5-3.8-9,0-3.4,0-6.7,0-10.1,0-1.2,.5-1.8,1.8-1.8,.7,0,1.5,0,2.3,0Zm22.9,2.7h-24.3v.5c0,2.9,0,5.8,0,8.8,0,.9,0,1.8,.3,2.7,1,3.6,3.4,5.8,7,6.7,.4,.1,.9,.2,1.3,.2,2.4,0,4.9,.2,7.3,0,4.8-.5,8.3-4.5,8.4-9.2,0-3,0-6.1,0-9.1v-.4ZM11.2,2.7c-1.5,0-2.8,0-4.2,0-1.4,0-2.4,.6-3.2,1.6-1.3,1.9-1.5,4-.7,6.1,.6,1.7,1.7,2.9,3.6,3.1,.5,0,.9,.2,1.1,.7,.1,.3,.2,.7,.2,1.1,0,8.2,0,16.4,0,24.6v.5h6.7c0,0,0-.1,0-.2,0-8,0-16,0-24,0-.2,0-.3-.3-.4-1-.3-1.8-.8-2.6-1.5-2.5-2.4-3.5-7.4-1.2-11,.1-.2,.3-.4,.4-.7ZM78,43.2H2.9c.4,1.5,2.2,2.7,3.8,2.7,22.2,0,44.5,0,66.7,0,.3,0,.5,0,.8,0,.7,0,1.3-.2,1.9-.5,.8-.5,1.4-1.2,1.8-2.1Zm-5.2-18.9v8.1c.9,0,1.8,0,2.8,0,1.2,0,2.4-.9,2.5-2.1,.1-1.2,.2-2.4,0-3.6-.1-1.4-1.2-2.4-2.4-2.4-1,0-1.9,0-3,0Z"/>
      <path " d="M58.8,14.7c.2-.6,.4-1.1,.6-1.7,.3-.6,.3-1,0-1.6-.7-1.3-.8-2.6,0-3.9,.1-.2,.2-.5,.3-.8,.2-.8,.7-1.3,1.5-1.2,.8,.1,1.3,.8,1.2,1.6,0,.6-.3,1.1-.5,1.7-.3,.5-.3,1,0,1.5,.5,.8,.7,1.7,.5,2.6-.1,.5-.4,1-.5,1.4,0,.2-.2,.4-.2,.6,0,.8-.6,1.4-1.3,1.3-.8,0-1.4-.7-1.3-1.5h-.1Z"/>
      <path " d="M66.9,14.6c.2-.5,.3-1.1,.6-1.6,.3-.6,.4-1.1,0-1.6-.8-1.3-.8-2.6,0-3.9,.1-.2,.2-.5,.3-.8,.2-.8,.7-1.3,1.5-1.2,.8,.1,1.3,.8,1.2,1.6,0,.6-.3,1.1-.6,1.6-.3,.5-.3,1,0,1.5,.5,.8,.7,1.7,.5,2.6-.1,.5-.3,.9-.5,1.4,0,.2-.2,.4-.2,.7-.1,.8-.6,1.4-1.3,1.3-.8,0-1.4-.7-1.3-1.5h-.1Z"/>
      <path " d="M24.2,28.3c.2-.3,.3-.7,.6-.9,.7-.7,1.4-1.4,2-2.1,3.7-3.7,7.5-7.5,11.2-11.2,.4-.4,.8-.7,1.4-.5,.5,.2,.8,.5,.9,1,0,.5-.1,.8-.4,1.2-.5,.5-1,1-1.5,1.5-3.9,3.9-7.8,7.8-11.7,11.7-.4,.4-.9,.8-1.6,.5-.5-.2-.9-.7-1-1.3Z"/>
      <path " d="M32.4,31.1c0-.5,.3-.8,.6-1.2,1.5-1.5,3-3,4.5-4.5,.2-.2,.5-.5,.7-.7,.6-.5,1.3-.5,1.8,0,.5,.5,.5,1.2,0,1.8-.4,.5-.9,.9-1.4,1.4-1.3,1.3-2.6,2.6-3.8,3.8-.4,.4-.9,.7-1.6,.5-.5-.2-.9-.7-.9-1.2Z"/>
      <path " d="M22.9,18.9c0-.5,.3-.8,.6-1.1,1.5-1.5,3-3,4.5-4.5,.2-.2,.5-.5,.7-.7,.6-.5,1.3-.5,1.8,0,.5,.5,.5,1.2,0,1.8-.6,.6-1.2,1.2-1.8,1.8-1.1,1.1-2.3,2.3-3.4,3.4-.3,.3-.6,.5-.9,.6-.7,.2-1.6-.4-1.5-1.2Z"/>
 
</svg>