<?xml version="1.0" encoding="UTF-8"?>
<svg xmlns="http://www.w3.org/2000/svg" width="54.3" height="64.4" viewBox="0 0 54.3 64.4">


      <path  d="M54.3,30.2c0,9,0,18,0,27,0,1.3-.6,2.3-1.8,2.9,0,0-.2,.2-.2,.3,0,.6,0,1.3,0,1.9,0,1.2-.8,2.1-2,2.1-1,0-2.1,0-3.1,0-1,0-1.7-.6-2-1.5-.2-.7-.4-1.4-.6-2.2,0-.3-.2-.3-.4-.3-6.7,0-13.4,0-20,0-4.7,0-9.4,0-14.1,0-.3,0-.4,0-.4,.3-.1,.7-.3,1.4-.5,2.1-.3,1-1,1.6-2,1.6-1,0-2.1,0-3.1,0-1.1,0-2-.9-2-2,0-.6,0-1.3,0-1.9,0-.2,0-.2-.2-.3C.7,59.5,0,58.6,0,57.3,0,39.2,0,21.1,0,3,0,1.3,1.2,.1,3,0,3.1,0,3.3,0,3.4,0,19.3,0,35.2,0,51,0c1.5,0,2.6,.7,3.1,2,.1,.3,.2,.7,.2,1.1,0,9,0,18,0,27ZM1.9,28.5h0c0,2.1,0,4.2,0,6.3,0,6.4,0,12.9,0,19.3,0,.2,0,.3,.3,.3,.5,0,1.1,0,1.6,0,16,0,32,0,48,0,.1,0,.3,0,.4,0,.2,0,.2,0,.2-.2,0-.3,0-.5,0-.8,0-14.2,0-28.4,0-42.7,0-2.6,0-5.2,0-7.7,0-.7-.4-1.1-1.1-1.2-.5,0-.9,0-1.4,0-9.3,0-18.6,0-27.9,0-5.6,0-11.1,0-16.7,0-.8,0-1.5,0-2.3,0-.6,0-1,.4-1,1,0,.1,0,.3,0,.4,0,8.4,0,16.8,0,25.2Zm0,27.8c0,.4,0,.7,0,1.1,0,.6,.4,1,1.1,1,.2,0,.4,0,.6,0,15.7,0,31.3,0,47,0,.3,0,.5,0,.8,0,.6,0,1-.4,1-.9,0-.4,0-.8,0-1.2H1.9Zm5.9,4c-1.3,0-2.5,0-3.7,0,0,0-.2,.1-.2,.2,0,.6,0,1.2,0,1.8,0,0,.1,.2,.2,.2,1,0,2,0,3,0,0,0,.2-.1,.2-.2,.1-.5,.3-1,.4-1.6,0-.1,0-.2,0-.4Zm38.6,0c.2,.7,.3,1.3,.5,2,0,0,.1,.1,.2,.1,1,0,2,0,3,0,0,0,.2-.1,.2-.2,0-.6,0-1.3,0-1.9h-3.9Z"/>
      <path  d="M43.5,25.2c.6,0,1.1,0,1.6,0,.3,0,.5,0,.8,0,.3,0,.3,0,.3-.4,0-3.8,0-7.6,0-11.5,0-.1,0-.3,0-.4,0-.5,.3-.8,.9-.9,.4,0,.9,.2,1,.7,0,.1,0,.3,0,.5,0,11.9,0,23.9,0,35.8,0,.8-.4,1.2-1.2,1.2-.4,0-.8,0-1.3,0-12.7,0-25.4,0-38,0-.3,0-.6,0-.9,0-.5,0-.8-.4-.9-1,0-.7,0-1.3,0-2,0-.6,.4-1,1-1,.5,0,.9,.4,.9,1,0,.3,0,.5,0,.8,0,.2,0,.3,.2,.3,1,0,1.9,0,2.9,0,0-.1,0-.2,0-.3,0-2.8,0-5.7,0-8.5,0-1.1,.3-2.2,1.1-3.1,.2-.2,.3-.5,.3-.8,.2-1.5,.3-3.1,.5-4.6,0,0-.2,0-.2,0-.4-.2-.7-.5-.6-1,0-.4,.3-.7,.8-.8,.1,0,.3,0,.4,0,1.5,0,3.1,0,4.6,0,.6,0,.9,.3,1,.8,0,.5-.2,.8-.7,1.1,0,0-.2,.2-.2,.3,.1,1.5,.3,3,.5,4.4,0,.3,.2,.6,.4,.8,.7,.8,1,1.8,1,2.9,0,2.9,0,5.7,0,8.6,0,.1,0,.3,.2,.3,.8,0,1.6,0,2.4,0,0,0,0,0,.1,0,0-.2,0-.5,0-.7,0-2.7,0-5.3,0-8,0-1.1,.3-2.2,1.1-3,.3-.3,.3-.7,.4-1.1,.2-1.4,.3-2.7,.5-4.1,0,0,0-.1,0-.2-.1,0-.3,0-.4-.2-.3-.2-.5-.6-.5-.9,0-.4,.3-.7,.7-.8,.2,0,.3,0,.5,0,1.6,0,3.1,0,4.7,0,.6,0,.9,.3,1,.8,0,.5-.2,.9-.7,1.1-.2,0-.2,.2-.2,.3,.1,1.2,.3,2.4,.4,3.6,0,.2,0,.4,0,.6,0,.4,.2,.8,.4,1.1,.7,.8,1,1.8,1,2.9,0,2.8,0,5.7,0,8.5,0,.2,0,.3,.2,.3,.7,0,1.4,0,2.2,0,0,0,.1,0,.2,0,0-.1,0-.3,0-.4,0-2.8,0-5.6,0-8.4,0-1.1,.3-2.1,1.1-3,.2-.2,.3-.5,.3-.8,.2-1.5,.4-3,.5-4.6-.1,0-.2,0-.3-.1-.4-.1-.6-.5-.6-.9,0-.4,.3-.7,.7-.8,.1,0,.2,0,.3,0,1.6,0,3.2,0,4.9,0,.8,0,1.3,.7,.9,1.4-.2,.3-.5,.4-.8,.7,0,.4,.1,.9,.2,1.5,.1,1,.2,2,.3,3,0,.3,.2,.6,.3,.8,.8,.9,1.1,1.9,1.1,3.1,0,2.8,0,5.5,0,8.3,0,.1,0,.2,0,.4h3.1V27.1H7.9c0,.2,0,.3,0,.5,0,5.1,0,10.2,0,15.4,0,.1,0,.3,0,.4,0,.5-.4,.8-.8,.8-.5,0-.9-.2-1-.7,0-.1,0-.3,0-.5,0-12,0-23.9,0-35.9,0-.7,.4-1.1,1.1-1.1,0,0,.1,0,.2,0,13.2,0,26.4,0,39.6,0,.9,0,1.3,.4,1.3,1.3,0,.5,0,1.1,0,1.6,0,.4-.2,.8-.6,.9-.4,.1-.8,0-1-.3-.1-.2-.2-.4-.2-.6,0-.2,0-.5,0-.7,0-.3-.1-.4-.4-.4-1.1,0-2.1,0-3.2,0-6.8,0-13.7,0-20.5,0-4.6,0-9.3,0-13.9,0-.4,0-.4,0-.4,.4,0,5.5,0,11.1,0,16.6,0,.1,0,.3,.2,.3,.8,0,1.7,0,2.6,0,0-.2-.1-.4-.2-.6-.3-.9-.5-1.9-.5-2.9,0-1.7,0-3.3,0-5,0-1.2,.2-2.3,.6-3.4,.2-.5,.3-1,.5-1.5,.2-.6,.5-.8,1-.8,2,0,3.9,0,5.9,0,.4,0,.8,.2,1,.6,.3,1.2,.7,2.3,1,3.5,0,.4,0,.7,0,1.1,0,1.8,0,3.6,0,5.3,0,1.1-.2,2.1-.5,3.1,0,.1,0,.3-.1,.4h3.4c0-.2-.1-.4-.2-.6-.3-.8-.4-1.7-.4-2.6,0-1.9,0-3.7,0-5.6,0-.9,.1-1.9,.4-2.7,.2-.6,.4-1.1,.6-1.7,.2-.6,.5-.8,1.1-.8,.5,0,1,0,1.5,0,1.4,0,2.7,0,4.1,0,.9,0,1.1,.2,1.3,1,.3,.9,.6,1.8,.8,2.8,.1,.4,.1,.8,.1,1.2,0,1.9,0,3.9,0,5.8,0,.9-.2,1.8-.5,2.7,0,.2-.1,.4-.2,.6h3.5c0-.3-.2-.5-.3-.8-.3-.8-.4-1.5-.4-2.3,0-2,0-4,0-5.9,0-1,.2-1.9,.5-2.8,.2-.5,.3-.9,.5-1.4,.2-.7,.5-.9,1.2-.9,.9,0,1.7,0,2.6,0,1,0,2,0,3,0,.7,0,1,.2,1.2,.9,.3,1.1,.7,2.1,.9,3.2,.1,.4,.1,.9,.1,1.4,0,1.7,0,3.5,0,5.2,0,1.1-.2,2.1-.6,3.2,0,0,0,.2-.1,.3Zm-30.5,16c0,.1,0,.2,0,.2,0,2.2,0,4.5,0,6.7,0,.2,.1,.2,.3,.2,1.5,0,3.1,0,4.6,0,.2,0,.3,0,.3-.3,0-2.2,0-4.4,0-6.6,0-.3,0-.3-.3-.3-1.3,0-2.6,0-3.9,0-.3,0-.6,0-1,0Zm11.6,0c0,.1,0,.2,0,.2,0,2.2,0,4.5,0,6.7,0,.2,0,.3,.3,.3,1.5,0,3,0,4.5,0,.1,0,.3,0,.4,0v-7.2h-5.1Zm16.7,3.6h0c0-1.1,0-2.2,0-3.3,0-.2,0-.3-.3-.3-1.5,0-3,0-4.6,0-.2,0-.3,0-.3,.3,0,1.2,0,2.3,0,3.5,0,1,0,2.1,0,3.1,0,.2,0,.3,.2,.3,1.5,0,3.1,0,4.6,0,.2,0,.3,0,.3-.3,0-1.1,0-2.2,0-3.3ZM12,17c0,1.3,0,2.6,0,4,0,.2,.1,.2,.3,.2,1.9,0,3.7,0,5.6,0,.2,0,.3,0,.3-.3,0-1.2,0-2.3,0-3.5,0-.1,0-.2,0-.3h-6.2Zm24.2,0c0,1.3,0,2.6,0,3.9,0,.2,0,.3,.3,.3,1.8,0,3.6,0,5.4,0,.2,0,.3,0,.5,0v-4.1h-6.2Zm-12.1,0c0,1.3,0,2.6,0,3.9,0,.3,.2,.2,.3,.2,1.8,0,3.6,0,5.4,0,.1,0,.3,0,.4,0v-4.1h-6.1Zm-5.9,22.2c0-.5-.2-1-.5-1.4-.6-.7-.9-1.4-.9-2.3-.1-1.4-.3-2.8-.5-4.2,0,0-.1-.2-.2-.2-.3,0-.6,0-1,0-.2,0-.2,0-.2,.2-.1,1.3-.3,2.6-.4,3.9,0,1-.3,2-1,2.8-.2,.3-.3,.7-.4,1,0,.2,0,.3,.2,.3,1.6,0,3.2,0,4.7,0,0,0,.1,0,.2,0Zm23.2,0c0-.2,0-.3,0-.4,0-.5-.4-.9-.7-1.4-.3-.4-.5-.9-.6-1.3-.2-1.6-.4-3.2-.5-4.9,0-.2,0-.3-.3-.3-.3,0-.6,0-.9,0,0,0-.2,.1-.2,.2-.2,1.4-.3,2.7-.4,4.1,0,.9-.3,1.7-.9,2.4-.2,.3-.4,.7-.5,1-.1,.3,0,.4,.3,.4,1.4,0,2.7,0,4.1,0,.2,0,.5,0,.8,0Zm-11.6,0c0-.6-.2-1-.5-1.4-.4-.5-.7-1-.8-1.6-.1-.9-.2-1.9-.3-2.8,0-.8-.2-1.5-.3-2.3-.4,0-.7,0-1.1,0-.2,0-.3,0-.3,.3-.1,1.3-.3,2.6-.4,3.9,0,1-.3,1.9-1,2.7-.2,.3-.3,.7-.5,1-.1,.3,0,.3,.3,.3,1.5,0,3,0,4.6,0,.1,0,.2,0,.3,0ZM12,15.1h6c-.2-.6-.4-1.2-.6-1.8,0-.2-.2-.3-.4-.3-1.4,0-2.8,0-4.2,0-.2,0-.3,0-.3,.2-.1,.5-.3,.9-.5,1.4,0,.2,0,.3-.1,.5Zm18.1,0c-.2-.7-.4-1.3-.7-1.9,0,0-.2-.2-.3-.2-1.4,0-2.9,0-4.3,0,0,0-.2,0-.2,.1-.2,.6-.4,1.3-.7,2h6.1Zm-12.1,8h-6c0,.1,0,.2,0,.3,.2,.5,.3,1,.5,1.5,0,.2,.2,.3,.4,.3,1.2,0,2.4,0,3.6,0,.8,0,.8,0,1-.7,.1-.4,.2-.7,.3-1.1,0,0,0-.2,0-.3Zm6.1,0c.2,.7,.4,1.3,.7,2,0,0,.2,.1,.3,.1,1.4,0,2.8,0,4.1,0,.2,0,.3,0,.4-.3,.1-.4,.3-.8,.4-1.1,0-.2,.1-.5,.2-.7h-6Zm12.1-8h6.1c-.2-.6-.4-1.2-.6-1.8,0-.2-.2-.3-.4-.3-1.3,0-2.7,0-4,0-.3,0-.4,0-.5,.4-.2,.6-.4,1.1-.6,1.8Zm0,8c.2,.7,.4,1.4,.7,2,0,0,.2,.1,.3,.1,1.4,0,2.8,0,4.2,0,.2,0,.3,0,.3-.2,.1-.3,.2-.7,.3-1,0-.3,.2-.6,.3-.9h-6.1Z"/>
   
</svg>