<?xml version="1.0" encoding="UTF-8"?>
<svg id="uuid-327460c0-4626-42d1-93d7-2b851533df84" data-name="Layer 2" xmlns="http://www.w3.org/2000/svg" width="59.5" height="59.6" viewBox="0 0 59.5 59.6">
  <defs>
    <style>
      .uuid-5dd937d3-9074-4f4d-8520-16c3aaf5a2c3 {
        fill: #fff;
      }
    </style>
  </defs>
  <g id="uuid-2cd87056-cbd1-4999-9d77-11bfdd149ce1" data-name="Capa 1">
    <path class="uuid-5dd937d3-9074-4f4d-8520-16c3aaf5a2c3" d="M31.5,34c0,.1,0,.2,0,.3,0,5.4,0,10.7,0,16.1,0,.5,.2,.8,.6,1.1,1.1,.6,2.2,1.2,3.2,1.8,.9,.5,1.2,1.3,1,2.1-.3,1-1.5,1.6-2.4,1.1-.7-.4-1.4-.8-2.1-1.2,0,0-.2,0-.3-.2,0,.4,0,.8,0,1.2,0,.6,0,1.2,0,1.8-.1,.9-.9,1.5-1.7,1.5-.8,0-1.5-.7-1.6-1.5,0-.4,0-.8,0-1.1,0-3.2,0-6.3,0-9.5,0-.2,0-.3-.3-.3-4.1-.5-7.5-2.2-10.4-5.1-1.9-1.9-3.3-4.1-4.1-6.7-.5-1.5-.8-3.1-.9-4.7,0-1.9,.1-3.7,.6-5.5,.8-3,2.4-5.7,4.7-7.8,2.6-2.5,5.7-4.1,9.2-4.7,.3,0,.6,0,.9-.1,.2,0,.3,0,.3-.3,0-1.7,0-3.4,0-5.1,0-1.7,0-3.4,0-5.1,0-.5,0-1,.5-1.4,.5-.5,1.1-.7,1.7-.5,.7,.2,1.1,.6,1.2,1.3,0,.9,0,1.8,0,2.7,0,0,0,.2,0,.3,.1,0,.2,0,.3-.1,.6-.4,1.3-.8,1.9-1.1,1.1-.6,2.3-.1,2.6,1,.2,.8-.1,1.6-.9,2-.8,.4-1.5,.9-2.3,1.3-.5,.3-1,.6-1.5,.9,0,0-.2,.2-.2,.3,0,.4,0,.9,0,1.3,0,5.1,0,10.2,0,15.3,0,0,0,.1,0,.3,0,0,.1,0,.1,0,3.9-3.9,7.8-7.9,11.8-11.8,.1-.1,.2-.3,.1-.5-.4-1.4-.8-2.8-1.1-4.2-.3-1.3,.6-2.4,1.9-2.2,.7,0,1.3,.6,1.5,1.3,.2,.7,.4,1.5,.6,2.2,0,0,0,.2,.1,.3,.1-.1,.2-.2,.3-.2,.5-.5,1-1,1.5-1.5,.5-.5,1.1-.7,1.8-.4,.7,.2,1.1,.7,1.1,1.4,0,.6-.1,1.1-.6,1.5-.6,.6-1.1,1.1-1.7,1.7,.3,0,.5,.2,.7,.2,.6,.2,1.2,.3,1.8,.5,.9,.2,1.4,1,1.4,1.8,0,.8-.7,1.5-1.6,1.6-.4,0-.7,0-1.1-.2-1.3-.3-2.6-.7-3.9-1,0,0-.2,0-.3,0-.5,.5-1,1-1.5,1.5-3.4,3.4-6.8,6.8-10.3,10.3,0,0-.1,.1-.2,.2h0c.1,0,.2,0,.3,0,5.5,0,11,0,16.5,0,.2,0,.3,0,.4-.2,.7-1.2,1.4-2.5,2.2-3.7,.4-.6,.9-1,1.7-1,1.1,.1,1.8,1.2,1.4,2.3-.1,.4-.4,.7-.6,1.1-.3,.5-.5,1-.8,1.5,.1,0,.2,0,.3,0,.8,0,1.6,0,2.4,0,1,0,1.8,.8,1.7,1.8,0,.9-.8,1.7-1.7,1.7-.9,0-1.8,0-2.7,0,0,.1,0,.2,.1,.3,.4,.7,.8,1.4,1.2,2,.4,.7,.4,1.3-.1,1.9-.7,.9-2.1,.9-2.8-.1-.4-.6-.8-1.3-1.2-2-.4-.7-.7-1.3-1.1-2,0,0-.2-.2-.3-.2-5.5,0-10.9,0-16.4,0-.2,0-.3,0-.6,0,.2,.2,.2,.3,.3,.4,3.9,3.9,7.7,7.7,11.5,11.6,.1,.1,.3,.2,.5,.1,1.4-.4,2.8-.8,4.2-1.1,.8-.2,1.6,0,2,.7,.6,.9,.2,2.2-.9,2.5-.7,.2-1.3,.4-2,.5-.2,0-.4,.1-.7,.2,.1,.2,.3,.3,.4,.4,.5,.5,.9,.9,1.4,1.4,1,1,.5,2.6-.9,2.9-.6,.1-1.1,0-1.5-.5-.6-.6-1.2-1.2-1.8-1.8,0,.2-.1,.4-.2,.5-.2,.7-.4,1.5-.6,2.2-.2,.8-.9,1.2-1.7,1.2-.7,0-1.4-.5-1.6-1.3,0-.3,0-.7,0-1,.4-1.4,.7-2.8,1.1-4.2,0-.2,0-.3-.1-.4-3.9-3.9-7.8-7.8-11.6-11.6,0,0-.2-.1-.3-.3Zm-3.5-18c-5.9,.5-11.9,5.9-12.2,13.2-.3,8.4,6.3,13.9,12.2,14.5V16Z"/>
    <path class="uuid-5dd937d3-9074-4f4d-8520-16c3aaf5a2c3" d="M4.5,31.5c-.9,0-1.9,0-2.8,0C.7,31.5,0,30.7,0,29.7c0-.9,.8-1.7,1.7-1.7,1.9,0,3.8,0,5.7,0,1,0,1.7,.8,1.7,1.8,0,.9-.8,1.7-1.7,1.7-.5,0-.9,0-1.4,0-.5,0-.9,0-1.4,0h0Z"/>
    <path class="uuid-5dd937d3-9074-4f4d-8520-16c3aaf5a2c3" d="M17.4,55.7c0-.3,.1-.5,.2-.8,.7-1.7,1.3-3.3,2-5,.3-.8,1-1.2,1.7-1.2,.7,0,1.4,.5,1.6,1.2,.1,.4,.1,.7,0,1.1-.7,1.8-1.4,3.6-2.2,5.3-.3,.7-1.1,1.1-1.9,.9-.8-.2-1.3-.8-1.4-1.7Z"/>
    <path class="uuid-5dd937d3-9074-4f4d-8520-16c3aaf5a2c3" d="M21.4,10.7c-.9,0-1.4-.4-1.7-1.1-.5-1.1-.9-2.2-1.3-3.3-.2-.5-.4-.9-.6-1.4-.1-.3-.2-.6-.3-.9-.1-.8,.4-1.6,1.2-1.8,.8-.2,1.7,.1,2.1,.9,.3,.7,.6,1.4,.9,2.2,.4,1.1,.9,2.1,1.2,3.2,.4,1,0,1.9-1,2.2-.2,0-.4,0-.5,.1Z"/>
    <path class="uuid-5dd937d3-9074-4f4d-8520-16c3aaf5a2c3" d="M3.8,42c-.8,0-1.5-.6-1.7-1.4-.2-.8,.2-1.6,1-1.9,1.2-.5,2.3-1,3.5-1.5,.6-.2,1.2-.5,1.7-.7,1.2-.4,2.2,.2,2.4,1.4,.1,.7-.3,1.5-1,1.8-1.2,.5-2.4,1-3.7,1.5-.5,.2-1,.4-1.6,.6-.2,0-.4,.1-.7,.2Z"/>
    <path class="uuid-5dd937d3-9074-4f4d-8520-16c3aaf5a2c3" d="M4,17.4c.2,0,.5,.1,.8,.2,1.6,.6,3.2,1.3,4.8,1.9,.7,.3,1.2,.9,1.2,1.7,0,.7-.3,1.2-.9,1.6-.5,.3-1,.2-1.5,0-1.7-.7-3.4-1.4-5-2.1-.7-.3-1.1-.8-1.1-1.6,0-.9,.8-1.7,1.9-1.7Z"/>
    <path class="uuid-5dd937d3-9074-4f4d-8520-16c3aaf5a2c3" d="M8.2,9.7c0-.5,.3-1,1-1.3,.7-.3,1.4-.2,1.9,.3,1.3,1.3,2.7,2.7,4,4,.5,.5,.6,1.3,.3,1.9-.3,.6-.9,1-1.6,1-.5,0-.8-.2-1.2-.5-1.3-1.3-2.6-2.6-4-4-.3-.3-.5-.8-.5-1.5Z"/>
    <path class="uuid-5dd937d3-9074-4f4d-8520-16c3aaf5a2c3" d="M8.2,49.6c0-.4,.1-.8,.5-1.1,1.4-1.4,2.7-2.7,4.1-4.1,.6-.6,1.6-.6,2.3,0,.6,.5,.8,1.5,.3,2.2,0,.1-.2,.2-.3,.4-1.3,1.3-2.5,2.5-3.8,3.8-.6,.6-1.2,.8-2,.5-.7-.3-1-.9-1-1.6Z"/>
  </g>
</svg>