<?xml version="1.0" encoding="UTF-8"?>
<svg id="uuid-def2cb11-6a76-44df-9f37-452f28a47971" data-name="Layer 2" xmlns="http://www.w3.org/2000/svg" width="67.8" height="80.4" viewBox="0 0 67.8 80.4">
  <defs>
    <style>
      .uuid-95ec0fc1-86af-419c-80e7-6fb943c1040d {
        fill: #fff;
      }
    </style>
  </defs>
  <g id="uuid-162dbaeb-423b-4c45-bb3f-9299e829bc14" data-name="Capa 1">
    <g>
      <path class="uuid-95ec0fc1-86af-419c-80e7-6fb943c1040d" d="M67.8,37.7c0,11.3,0,22.5,0,33.8,0,1.7-.8,2.9-2.3,3.6-.1,0-.2,.2-.2,.4,0,.8,0,1.6,0,2.4,0,1.5-1,2.6-2.5,2.6-1.3,0-2.6,0-3.9,0-1.2,0-2.1-.7-2.4-1.9-.3-.9-.5-1.8-.7-2.7,0-.3-.2-.4-.5-.4-8.3,0-16.7,0-25,0-5.9,0-11.7,0-17.6,0-.3,0-.5,0-.6,.4-.2,.9-.4,1.7-.6,2.6-.3,1.3-1.2,2-2.5,2-1.3,0-2.6,0-3.9,0-1.4,0-2.4-1.1-2.4-2.5,0-.8,0-1.6,0-2.4,0-.2,0-.3-.3-.4C.8,74.4,0,73.2,0,71.6,0,49,0,26.4,0,3.7,0,1.7,1.5,.2,3.7,0,3.9,0,4.1,0,4.3,0,24.1,0,44,0,63.8,0c1.9,0,3.3,.9,3.8,2.5,.1,.4,.2,.9,.2,1.3,0,11.3,0,22.5,0,33.8ZM2.3,35.7h0c0,2.6,0,5.2,0,7.8,0,8.1,0,16.1,0,24.2,0,.3,0,.4,.3,.4,.7,0,1.3,0,2,0,20,0,40,0,60,0,.2,0,.3,0,.5,0,.2,0,.3,0,.3-.3,0-.3,0-.6,0-.9,0-17.8,0-35.5,0-53.3,0-3.2,0-6.4,0-9.7,0-.9-.5-1.4-1.4-1.4-.6,0-1.2,0-1.7,0-11.6,0-23.3,0-34.9,0-7,0-13.9,0-20.9,0-1,0-1.9,0-2.9,0-.8,0-1.3,.5-1.3,1.3,0,.2,0,.4,0,.5,0,10.5,0,21,0,31.5Zm0,34.7c0,.5,0,.9,0,1.3,0,.8,.5,1.2,1.3,1.3,.3,0,.5,0,.8,0,19.6,0,39.1,0,58.7,0,.3,0,.6,0,.9,0,.7,0,1.2-.5,1.3-1.1,0-.5,0-1,0-1.5H2.4Zm7.4,5c-1.6,0-3.1,0-4.7,0,0,0-.2,.1-.2,.2,0,.7,0,1.5,0,2.2,0,0,.2,.2,.2,.2,1.3,0,2.5,0,3.8,0,.1,0,.3-.2,.3-.3,.2-.7,.3-1.3,.5-2,0-.1,0-.3,0-.4Zm48.3,0c.2,.9,.4,1.7,.6,2.5,0,0,.2,.2,.3,.2,1.2,0,2.5,0,3.7,0,0,0,.3-.1,.3-.2,0-.8,0-1.6,0-2.4h-4.9Z"/>
      <path class="uuid-95ec0fc1-86af-419c-80e7-6fb943c1040d" d="M54.4,31.5c.7,0,1.4,0,2.1,0,.3,0,.7,0,1,0,.4,0,.4-.1,.4-.5,0-4.8,0-9.6,0-14.3,0-.2,0-.3,0-.5,0-.6,.4-1,1.1-1.1,.5,0,1.1,.3,1.2,.9,0,.2,0,.4,0,.6,0,14.9,0,29.8,0,44.7,0,1-.5,1.5-1.5,1.5-.5,0-1,0-1.6,0-15.8,0-31.7,0-47.5,0-.4,0-.7,0-1.1,0-.7-.1-1.1-.5-1.1-1.2,0-.8,0-1.6,0-2.5,0-.7,.5-1.2,1.2-1.2,.7,0,1.1,.5,1.2,1.2,0,.3,0,.7,0,1,0,.2,0,.3,.3,.3,1.2,0,2.4,0,3.6,0,0-.1,0-.2,0-.3,0-3.6,0-7.1,0-10.7,0-1.4,.4-2.7,1.4-3.8,.2-.2,.4-.6,.4-.9,.2-1.9,.4-3.8,.6-5.8,0,0-.2,0-.3-.1-.5-.2-.8-.6-.8-1.2,0-.5,.4-.9,.9-1,.2,0,.4,0,.5,0,1.9,0,3.9,0,5.8,0,.7,0,1.2,.3,1.3,1,.1,.6-.2,1-.9,1.3,0,0-.2,.2-.2,.3,.2,1.8,.4,3.7,.6,5.5,0,.4,.2,.8,.5,1,.9,1.1,1.3,2.2,1.3,3.6,0,3.6,0,7.2,0,10.8,0,.2,0,.3,.3,.3,1,0,2,0,2.9,0,0,0,0,0,.1,0,0-.3,0-.6,0-.9,0-3.3,0-6.7,0-10,0-1.4,.4-2.7,1.3-3.8,.4-.4,.4-.9,.5-1.4,.2-1.7,.4-3.4,.6-5.1,0,0,0-.2,0-.3-.2,0-.3-.1-.5-.2-.4-.2-.7-.7-.6-1.2,0-.5,.4-.9,.8-1,.2,0,.4,0,.6,0,1.9,0,3.9,0,5.8,0,.7,0,1.2,.4,1.3,.9,.1,.6-.2,1.1-.9,1.3-.3,0-.2,.2-.2,.4,.2,1.5,.3,3,.5,4.5,0,.2,0,.5,0,.7,0,.5,.2,1,.5,1.4,.9,1,1.3,2.2,1.3,3.6,0,3.6,0,7.1,0,10.7,0,.2,0,.4,.3,.4,.9,0,1.8,0,2.7,0,0,0,.2,0,.3,0,0-.2,0-.3,0-.5,0-3.5,0-7,0-10.5,0-1.4,.4-2.7,1.3-3.8,.2-.3,.4-.6,.4-1,.2-1.9,.5-3.8,.7-5.7-.1,0-.3,0-.4-.2-.4-.2-.8-.7-.7-1.2,0-.5,.4-.9,.9-1,.1,0,.3,0,.4,0,2,0,4.1,0,6.1,0,1,0,1.6,.9,1.1,1.7-.2,.3-.6,.5-1,.9,0,.5,.1,1.2,.2,1.8,.1,1.3,.2,2.5,.4,3.8,0,.3,.2,.7,.4,1,.9,1.1,1.4,2.4,1.4,3.9,0,3.5,0,6.9,0,10.4,0,.2,0,.3,0,.5h3.9v-26.5H9.9c0,.2,0,.4,0,.6,0,6.4,0,12.8,0,19.2,0,.2,0,.3,0,.5,0,.6-.5,1-1,1-.6,0-1.1-.3-1.3-.8,0-.2,0-.4,0-.6,0-14.9,0-29.9,0-44.8,0-.9,.5-1.4,1.4-1.4,0,0,.2,0,.3,0,16.5,0,33,0,49.5,0,1.1,0,1.6,.4,1.6,1.6,0,.7,0,1.4,0,2,0,.5-.2,1-.8,1.2-.5,.2-1,0-1.3-.3-.2-.2-.3-.5-.3-.8,0-.3,0-.6,0-.9,0-.4-.1-.5-.5-.5-1.3,0-2.6,0-4,0-8.5,0-17.1,0-25.6,0-5.8,0-11.6,0-17.4,0-.5,0-.5,0-.5,.5,0,6.9,0,13.8,0,20.7,0,.2,0,.4,.2,.4,1.1,0,2.1,0,3.2,0,0-.3-.2-.5-.2-.7-.4-1.2-.6-2.4-.6-3.7,0-2.1,0-4.2,0-6.2,0-1.4,.2-2.8,.7-4.2,.2-.6,.4-1.2,.6-1.8,.2-.7,.6-1,1.3-1,2.4,0,4.9,0,7.3,0,.6,0,1,.2,1.2,.8,.4,1.4,.8,2.9,1.2,4.4,.1,.4,.1,.9,.1,1.4,0,2.2,0,4.5,0,6.7,0,1.3-.2,2.6-.7,3.8,0,.2,0,.3-.2,.5h4.3c0-.3-.2-.6-.3-.8-.4-1-.5-2.1-.5-3.2,0-2.3,0-4.7,0-7,0-1.2,.2-2.3,.5-3.4,.2-.7,.5-1.4,.7-2.1,.2-.7,.6-1,1.3-1,.6,0,1.3,0,1.9,0,1.7,0,3.4,0,5.1,0,1.1,0,1.4,.2,1.7,1.2,.4,1.1,.7,2.3,1,3.4,.1,.5,.1,1,.1,1.6,0,2.4,0,4.9,0,7.3,0,1.2-.2,2.3-.6,3.4,0,.2-.1,.4-.2,.7h4.3c-.1-.3-.2-.7-.3-1-.4-.9-.5-1.9-.5-2.9,0-2.5,0-4.9,0-7.4,0-1.2,.3-2.4,.7-3.5,.2-.6,.4-1.2,.6-1.7,.3-.8,.6-1.1,1.5-1.1,1.1,0,2.2,0,3.3,0,1.2,0,2.5,0,3.7,0,.9,0,1.2,.2,1.5,1.1,.4,1.3,.8,2.7,1.2,4,.1,.5,.1,1.1,.1,1.7,0,2.2,0,4.3,0,6.5,0,1.4-.2,2.7-.7,3.9,0,.1,0,.2-.1,.4ZM16.2,51.4c0,.1,0,.2,0,.3,0,2.8,0,5.6,0,8.4,0,.3,.1,.3,.3,.3,1.9,0,3.8,0,5.8,0,.3,0,.4,0,.4-.4,0-2.7,0-5.5,0-8.2,0-.3-.1-.4-.4-.4-1.6,0-3.2,0-4.8,0-.4,0-.8,0-1.2,0Zm14.5,0c0,.1,0,.2,0,.3,0,2.8,0,5.6,0,8.4,0,.3,.1,.3,.4,.3,1.9,0,3.7,0,5.6,0,.2,0,.3,0,.5,0v-9h-6.4Zm20.9,4.5h0c0-1.4,0-2.7,0-4.1,0-.3,0-.4-.4-.4-1.9,0-3.8,0-5.7,0-.3,0-.4,0-.4,.4,0,1.4,0,2.9,0,4.3,0,1.3,0,2.6,0,3.9,0,.2,0,.4,.3,.4,1.9,0,3.8,0,5.8,0,.3,0,.4-.1,.4-.4,0-1.4,0-2.7,0-4.1ZM15,21.3c0,1.7,0,3.3,0,4.9,0,.2,.2,.2,.3,.2,2.3,0,4.7,0,7,0,.3,0,.4,0,.4-.4,0-1.5,0-2.9,0-4.4,0-.1,0-.3,0-.4h-7.7Zm30.2,0c0,1.6,0,3.2,0,4.8,0,.3,.1,.3,.4,.3,2.2,0,4.5,0,6.7,0,.2,0,.4,0,.6,0v-5.1h-7.7Zm-15.1,0c0,1.7,0,3.3,0,4.9,0,.3,.2,.3,.4,.3,2.2,0,4.5,0,6.7,0,.2,0,.4,0,.5,0v-5.1h-7.7Zm-7.4,27.8c0-.7-.2-1.3-.6-1.7-.7-.8-1.1-1.8-1.2-2.9-.2-1.8-.4-3.5-.6-5.3,0-.1-.2-.3-.3-.3-.4,0-.8,0-1.2,0-.2,0-.3,0-.3,.3-.2,1.6-.3,3.2-.5,4.8-.1,1.3-.4,2.5-1.3,3.5-.3,.3-.4,.8-.5,1.3,0,.3,0,.4,.3,.4,2,0,3.9,0,5.9,0,0,0,.2,0,.3,0Zm29,0c0-.2,0-.3,0-.4,0-.7-.5-1.2-.9-1.7-.3-.5-.7-1.1-.8-1.7-.3-2-.5-4-.7-6.1,0-.2-.1-.3-.3-.3-.4,0-.8,0-1.2,0-.1,0-.3,.2-.3,.3-.2,1.7-.4,3.4-.6,5.1,0,1.1-.4,2.2-1.2,3-.3,.4-.5,.8-.6,1.3-.1,.4,0,.5,.4,.5,1.7,0,3.4,0,5.1,0,.3,0,.6,0,1,0Zm-14.5,0c0-.7-.2-1.3-.7-1.8-.5-.6-.9-1.2-1-2-.1-1.2-.3-2.3-.4-3.5-.1-1-.2-1.9-.3-2.9-.5,0-.9,0-1.3,0-.3,0-.4,0-.4,.4-.2,1.6-.4,3.2-.5,4.8-.1,1.2-.4,2.3-1.2,3.3-.3,.3-.4,.9-.6,1.3-.1,.3,0,.4,.4,.4,1.9,0,3.8,0,5.7,0,.1,0,.3,0,.4,0ZM15,18.9h7.5c-.3-.8-.5-1.5-.7-2.3,0-.3-.2-.4-.5-.4-1.7,0-3.5,0-5.2,0-.2,0-.3,0-.4,.3-.2,.6-.4,1.2-.6,1.7,0,.2,0,.4-.1,.6Zm22.7,0c-.3-.9-.5-1.7-.8-2.4,0,0-.2-.2-.3-.2-1.8,0-3.6,0-5.4,0-.1,0-.3,0-.3,.2-.3,.8-.5,1.6-.8,2.5h7.6Zm-15.2,10h-7.5c0,.1,0,.3,0,.4,.2,.6,.4,1.3,.6,1.9,0,.3,.2,.4,.5,.4,1.5,0,3,0,4.5,0,.9,0,.9,0,1.2-.9,.2-.5,.3-.9,.4-1.4,0-.1,0-.2,0-.4Zm7.6,0c.3,.9,.5,1.7,.8,2.5,0,0,.3,.2,.4,.2,1.7,0,3.5,0,5.2,0,.2,0,.4,0,.4-.3,.1-.5,.3-.9,.5-1.4,0-.3,.2-.6,.3-.9h-7.6Zm15.1-10h7.6c-.3-.8-.5-1.6-.8-2.3,0-.3-.2-.3-.5-.3-1.7,0-3.3,0-5,0-.4,0-.5,0-.6,.4-.2,.7-.5,1.4-.7,2.2Zm0,10c.3,.9,.5,1.7,.8,2.5,0,0,.2,.1,.3,.1,1.8,0,3.5,0,5.3,0,.2,0,.3,0,.4-.3,.1-.4,.3-.8,.4-1.3,.1-.4,.2-.7,.3-1.1h-7.6Z"/>
    </g>
  </g>
</svg>