<?xml version="1.0" encoding="UTF-8"?>
<svg id="uuid-4b0d1b93-9239-4c65-a7af-c8646cf0f9a6" data-name="Layer 2" xmlns="http://www.w3.org/2000/svg" width="21.4" height="21.4" viewBox="0 0 21.4 21.4">
  <defs>
    <style>
      .uuid-f76fcd31-4c8d-485a-aa3c-f42f4358933c {
        fill: #3a5943;
      }
    </style>
  </defs>
  <g id="uuid-d9e918b1-1712-4451-ad36-870f07328657" data-name="Capa 1">
    <g>
      <path class="uuid-f76fcd31-4c8d-485a-aa3c-f42f4358933c" d="M20.6,10c.3,3.3-1.2,7.4-5.2,9.5-4,2.1-8.7,1.3-11.7-1.8C.4,14.3,0,9.5,2.1,5.9,4.4,1.8,8.6,.6,11.5,.8c-2.7,1.1-4.3,3.1-4.6,5.9-.3,2.2,.4,4.1,2,5.7,1.8,1.8,4,2.5,6.6,2,2.5-.6,4.2-2.1,5.2-4.5Zm-1.9,4.3c-1.6,1.1-3.4,1.7-5.3,1.5-1.9-.1-3.6-.8-5.1-2.1-1.5-1.4-2.4-3.2-2.7-5.2-.2-2.1,.3-4,1.5-5.7C4.5,3.8,1.5,7.2,2.1,11.9c.5,4,4,7.5,8.5,7.6,4.3,0,7.2-2.8,8.1-5.2Z"/>
      <path class="uuid-f76fcd31-4c8d-485a-aa3c-f42f4358933c" d="M20.6,10h-.8c0,.3,0,.6,0,.8,0,1.4-.4,3-1.1,4.4-.8,1.4-2,2.7-3.7,3.6-1.4,.8-2.9,1.1-4.3,1.1-2.4,0-4.7-1-6.4-2.7-1.8-1.8-2.7-4.1-2.7-6.4,0-1.6,.4-3.1,1.2-4.5,1-1.7,2.3-2.9,3.7-3.6,1.4-.7,2.9-1,4.2-1,.3,0,.5,0,.7,0V.8l-.2-.7c-1.4,.6-2.6,1.4-3.5,2.6-.9,1.1-1.4,2.5-1.6,4,0,.3,0,.7,0,1,0,2,.8,3.9,2.2,5.3,1.6,1.6,3.5,2.4,5.6,2.4,.6,0,1.1,0,1.7-.2h0c1.4-.3,2.5-.9,3.5-1.8,1-.8,1.7-1.9,2.2-3.2l-.7-.3h0l-.7-.3c-.4,1.1-1,2-1.8,2.6-.8,.7-1.7,1.1-2.8,1.4l.2,.8v-.8c-.6,0-1.1,.1-1.6,.1-1.7,0-3.1-.6-4.4-1.9-1.2-1.2-1.8-2.6-1.8-4.2,0-.3,0-.5,0-.8,.2-1.3,.6-2.4,1.3-3.2,.7-.9,1.6-1.6,2.9-2.1L14.7,.3,11.5,0c-.3,0-.6,0-.9,0-1.5,0-3.3,.4-4.9,1.2-1.7,.9-3.2,2.2-4.4,4.2C.5,7.1,0,8.9,0,10.7c0,2.7,1,5.4,3.1,7.5,2,2.1,4.8,3.2,7.6,3.2,1.7,0,3.5-.4,5.1-1.3,2-1,3.4-2.5,4.3-4.2,.9-1.7,1.4-3.5,1.4-5.2,0-.3,0-.6,0-.9l-.3-3.3-1.2,3.1,.7,.3Zm-1.9,4.3l-.5-.7c-1.3,.9-2.8,1.4-4.3,1.4-.2,0-.3,0-.5,0h0c-1.8-.1-3.3-.7-4.6-1.9-1.4-1.3-2.2-2.8-2.4-4.7,0-.3,0-.6,0-.8,0-1.5,.5-3,1.4-4.3l1.6-2.2-2.5,1c-1.4,.6-2.8,1.6-3.9,3.1-1.1,1.5-1.8,3.4-1.8,5.6,0,.4,0,.8,0,1.3,.3,2.2,1.4,4.2,3,5.8,1.6,1.5,3.8,2.5,6.3,2.5h.1c2.3,0,4.2-.8,5.7-1.9,1.5-1.1,2.5-2.5,3.1-3.9l1-2.5-2.2,1.5,.5,.7-.7-.3c-.4,1-1.3,2.2-2.5,3.2-1.2,.9-2.8,1.6-4.7,1.6h-.1c-2.1,0-3.9-.8-5.3-2.1-1.4-1.3-2.3-3-2.5-4.8,0-.4,0-.7,0-1.1,0-1.9,.6-3.4,1.5-4.7,.9-1.2,2.1-2.1,3.2-2.6l-.3-.7-.7-.5c-1.1,1.6-1.7,3.3-1.7,5.2,0,.3,0,.7,0,1,.2,2.3,1.2,4.2,2.9,5.7,1.6,1.4,3.5,2.2,5.6,2.3h0c.2,0,.4,0,.6,0,1.9,0,3.7-.6,5.2-1.7l-.5-.7-.7-.3,.7,.3Z"/>
    </g>
  </g>
</svg>