<?xml version="1.0" encoding="UTF-8"?>
<svg id="uuid-e4bae5c6-911a-4cba-8add-da2844507acb" data-name="Layer 2" xmlns="http://www.w3.org/2000/svg" width="176.5" height="57.1" viewBox="0 0 176.5 57.1">
  <defs>
    <style>
      .uuid-20fbec20-f828-4708-a9d6-53d8e2d2d365 {
        fill: #fff;
      }
    </style>
  </defs>
  <g id="uuid-a6deec61-2850-4f87-a748-5b6a34cdcb0e" data-name="Capa 1">
    <g>
      <path class="uuid-20fbec20-f828-4708-a9d6-53d8e2d2d365" d="M58,41.3c-.2,0-.4,.1-.6,.2-.2,0-.4,.1-.6,.2,0-.5,0-.9,0-1.3,0-.4,0-.8,0-1.2,0-.5,0-.9,0-1.4,0-.5,0-.9,0-1.4,0-1.3,0-2.7,0-4.1,0-.8,0-1.7,0-2.5,0-.8,0-1.7,0-2.5,0-.2,0-.4,0-.5s0-.3,.1-.3c0,0,.2-.1,.3-.2,.1,0,.3,0,.5,0,.5,0,1.1,0,1.6,0,.5,0,1.1,0,1.6,0s.8,0,1.1,0c.3,0,.7,0,1,.2,.3,0,.7,.2,1,.3,.3,.1,.7,.2,1.1,.4,0,0,0,0,.1,0,0,0,0,0,.1,0,.2,.2,.4,.4,.6,.6,.2,.2,.3,.4,.5,.6,.1,.2,.2,.5,.3,.7,0,.3,0,.5,0,.8,0,.4,0,.8,0,1.1,0,.4,0,.7-.1,1.1,0,.7-.3,1.3-.7,1.8-.3,.5-.8,1-1.4,1.3-.3,.2-.5,.3-.8,.3-.3,0-.6,0-.9,0h-.2c0,0-.1,0-.2,0h-.1c-.2,0-.5,0-.7,0-.2,0-.5,0-.7,0h-.3c0,0-.2,0-.3,0-.3,0-.5,0-.8,0-.3,0-.5,0-.8,0-.1,0-.2,0-.4,0-.1,0-.3,0-.4,0v6Zm0-7.7c.2,0,.3,0,.5,0,.2,0,.3,0,.5,0,.4,0,.7,0,1,0h2c.3,0,.6,0,1,0,0,0,.2,0,.3,0,0,0,.2,0,.3-.1,.2,0,.3-.2,.4-.3,.1-.1,.2-.3,.3-.4,0-.1,.2-.3,.3-.4,0-.2,.2-.3,.3-.5,.2-.3,.3-.6,.3-.9,0-.3,0-.6,0-.9,0-.3,0-.5-.2-.8-.1-.2-.3-.5-.6-.6-.6-.4-1.2-.7-1.8-.9-.6-.2-1.3-.4-1.9-.4-.4,0-.8,0-1.1,0-.4,0-.8,0-1.1,0,0,.5-.2,1.1-.2,1.7s-.1,1.2-.2,1.8,0,1.1,0,1.6c0,.5,0,.8,0,1.1"/>
      <path class="uuid-20fbec20-f828-4708-a9d6-53d8e2d2d365" d="M81.3,41.2c0,0-.2,.1-.3,.2,0,0-.2,0-.3,0,0,0-.2,0-.3,0s-.2,0-.3,0c0,0,0,0-.1-.1,0,0,0-.1-.1-.2-.2-.4-.3-.9-.5-1.3-.1-.4-.3-.9-.4-1.3,0-.3-.2-.5-.3-.8,0-.3-.2-.5-.2-.7-.3,0-.6,0-.8,0-.3,0-.6,0-.8,0-.8,0-1.7,0-2.5,0-.8,0-1.7,.1-2.5,.3-.2,.5-.3,1.1-.5,1.6-.2,.5-.3,1.1-.5,1.6,0,0,0,.1,0,.2,0,0,0,.1,0,.2,0,.2-.2,.4-.3,.5-.1,.1-.2,.2-.4,.2s-.2,0-.3,0c-.1,0-.2,0-.4,0,0,0,0-.2,0-.2,0,0,0-.2,0-.2,0-.2,.2-.5,.3-1,.2-.5,.3-1,.6-1.6,.2-.6,.4-1.3,.7-1.9,.2-.7,.5-1.3,.7-2,.2-.6,.4-1.2,.6-1.7,.2-.5,.3-.9,.4-1.2,0-.2,.1-.4,.2-.6,0-.2,.2-.4,.3-.6,.3-.6,.5-1.1,.8-1.7,.2-.6,.4-1.2,.6-1.8,0-.1,0-.2,0-.3,0,0,0-.1,.1-.2,0,0,.1,0,.2,0,0,0,.2,0,.3,0,.3,0,.6,0,.7,.2,.2,.1,.3,.3,.4,.6,.3,.8,.6,1.5,.9,2.3,.3,.8,.6,1.5,1,2.3,0,.1,0,.3,.1,.4,0,.1,0,.3,.1,.4,.2,.7,.5,1.3,.7,1.9,.2,.6,.5,1.3,.7,1.9,.2,.4,.3,.9,.4,1.3,.1,.4,.3,.9,.4,1.3,.1,.4,.2,.7,.4,1.1,.1,.4,.2,.7,.4,1.1m-3.4-5.5c0-.2-.1-.4-.3-.8-.1-.4-.3-.8-.5-1.2-.2-.5-.4-1-.6-1.5-.2-.5-.4-1-.6-1.5-.2-.5-.3-.9-.5-1.3-.1-.4-.2-.6-.3-.8-.3,.6-.5,1.2-.8,1.8-.3,.6-.5,1.2-.8,1.8s-.5,1.2-.7,1.8c-.2,.6-.4,1.2-.6,1.9,.9,0,1.8,0,2.7-.1,.9,0,1.8,0,2.8-.1"/>
      <path class="uuid-20fbec20-f828-4708-a9d6-53d8e2d2d365" d="M87.5,40.2c.9,0,1.7,0,2.6,0,.8,0,1.7,0,2.5,0h1.8c0,0,0,.1,0,.2,0,0,0,.2,0,.2,0,.3,0,.5-.1,.7-.1,.1-.3,.2-.6,.2h0c-.3,0-.6,0-.9,0-.3,0-.6,0-.9,0s-.4,0-.6,0c-.2,0-.3,0-.5,0-.2,0-.3,0-.5,0-.4,0-.9,0-1.3,0-.4,0-.8,0-1.3,0h-.3c0,0-.2,0-.3,0-.2,0-.3,0-.5,0-.2,0-.3,0-.5,0,0,0-.1,0-.2-.1,0,0,0-.1-.1-.2,0,0,0-.2,0-.3,0,0,0-.2,0-.3,0-1.4,0-2.8,0-4.2,0-1.4,0-2.8,0-4.2,0-.6,0-1.2,0-1.9,0-.6,0-1.2,0-1.9,0-.3,0-.6,0-.9,0-.3,0-.6,0-.9,0-.2,0-.3,0-.4,0,0,.1-.1,.3-.1s.2,0,.2,0c.2,0,.3,0,.4,0,0,0,.2,0,.2,.1,0,0,0,.1,.1,.2,0,.1,0,.2,0,.4v1.5c0,.5,0,1,0,1.5,0,.6,0,1.3,0,1.9,0,.6,0,1.3,0,1.9,0,.7,0,1.4,0,2.1,0,.7,0,1.4,0,2.1,0,.4,0,.7,0,1.1,0,.4,0,.7,0,1.1"/>
      <path class="uuid-20fbec20-f828-4708-a9d6-53d8e2d2d365" d="M113.9,41.3c0,0-.2,0-.3,0-.1,0-.2,0-.3,0-.2,0-.4,0-.5-.1,0,0-.1-.3-.2-.5,0-.3,0-.6,0-.8,0-.3,0-.6,0-.8,0-.4,0-.9,0-1.3,0-.4,0-.9,0-1.3,0-.2,0-.4,0-.6,0-.2,0-.4,0-.6,0-.6,0-1.1,0-1.7,0-.6,0-1.1,0-1.7,0-.5,0-1,0-1.4,0-.5,0-1,0-1.5-.2,.6-.5,1.1-.7,1.7-.2,.5-.5,1.1-.7,1.6-.1,.3-.3,.6-.4,.8-.1,.3-.3,.6-.4,.8-.2,.5-.5,1-.7,1.5-.2,.5-.5,1-.7,1.5-.3,.6-.5,1.3-.8,1.9s-.5,1.3-.8,1.9c0,.1-.1,.2-.2,.4,0,.1-.1,.2-.2,.4-.2,0-.3-.1-.5-.2-.2,0-.3-.1-.4-.2,0,0-.2-.2-.3-.3,0-.1-.1-.2-.2-.3-.5-1.2-.9-2.4-1.4-3.5-.4-1.2-.9-2.4-1.4-3.5-.1-.3-.3-.6-.4-.9-.2-.3-.3-.6-.5-.9-.1-.2-.2-.5-.3-.7,0-.2-.2-.5-.3-.7-.1,.9-.2,1.8-.3,2.7,0,.9,0,1.8-.1,2.7,0,.9,0,1.8,0,2.7,0,.9,0,1.8,0,2.8-.1,0-.3,0-.4,.1-.1,0-.2,0-.4,0,0,0,0,0-.1,0-.1,0-.2,0-.3-.1,0,0-.1-.2-.1-.3,0-.3,0-.5,0-.8,0-.3,0-.5,0-.8,0-.3,0-.5,0-.8,0-.3,0-.5,0-.8,0-.2,0-.4,0-.6,0-.2,0-.4,0-.6,0-.4,0-.8,0-1.2,0-.4,0-.8,0-1.2,0-.6,0-1.1,0-1.7,0-.6,0-1.1,0-1.7,0-.8,0-1.6,0-2.4s0-1.6,0-2.4c0,0,0,0,0,0,0,0,0,0,0,0h1.3c.3,0,.5,.2,.6,.5,.5,1.3,1,2.7,1.5,4,.5,1.3,1,2.7,1.5,4,.2,.4,.3,.9,.5,1.3,.2,.4,.4,.9,.6,1.3,.2,.4,.3,.8,.5,1.1,.2,.4,.3,.8,.5,1.2,.2-.4,.3-.8,.5-1.2,.1-.4,.3-.8,.4-1.1,.2-.6,.4-1.2,.7-1.8,.2-.6,.4-1.2,.7-1.8,0-.3,.2-.5,.3-.8,.1-.3,.2-.5,.3-.8,.2-.5,.4-1,.5-1.4,.2-.5,.4-.9,.5-1.4,.2-.5,.4-1,.7-1.5,.2-.5,.5-1,.7-1.5,0-.2,.2-.3,.4-.3s0,0,0,0c.2,0,.5,0,.7,.1,.2,0,.5,.1,.7,.2,0,0,.1,0,.1,.2,0,0,0,.2,0,.3,0,0,0,.2,0,.3h0c0,.7,0,1.3,.1,1.9,0,.6,0,1.1,0,1.7,0,.7,0,1.4,0,2.1,0,.7,0,1.4-.2,2.1,0,.5-.1,1,0,1.5,0,.5,0,1,0,1.5,0,.3,0,.6,0,.9,0,.3,0,.6,0,.9,0,.3,0,.6,0,.9,0,.3,0,.7,0,1.1"/>
      <path class="uuid-20fbec20-f828-4708-a9d6-53d8e2d2d365" d="M131.2,41.2c0,0-.2,.1-.3,.2,0,0-.2,0-.3,0,0,0-.2,0-.3,0s-.2,0-.3,0c0,0,0,0-.1-.1,0,0-.1-.1-.1-.2-.2-.4-.3-.9-.5-1.3-.1-.4-.3-.9-.4-1.3,0-.3-.2-.5-.3-.8,0-.3-.2-.5-.2-.7-.3,0-.6,0-.8,0-.3,0-.6,0-.8,0-.8,0-1.7,0-2.5,0-.8,0-1.6,.1-2.5,.3-.2,.5-.3,1.1-.5,1.6-.2,.5-.3,1.1-.5,1.6,0,0,0,.1,0,.2,0,0,0,.1,0,.2,0,.2-.2,.4-.3,.5-.1,.1-.2,.2-.4,.2s-.2,0-.3,0c-.1,0-.2,0-.4,0,0,0,0-.2,0-.2,0,0,0-.2,0-.2,0-.2,.2-.5,.3-1,.2-.5,.3-1,.6-1.6,.2-.6,.4-1.3,.7-1.9,.2-.7,.5-1.3,.7-2,.2-.6,.4-1.2,.6-1.7,.2-.5,.3-.9,.4-1.2,0-.2,.1-.4,.2-.6,0-.2,.2-.4,.3-.6,.3-.6,.5-1.1,.8-1.7,.2-.6,.4-1.2,.6-1.8,0-.1,0-.2,0-.3,0,0,0-.1,.1-.2,0,0,.1,0,.2,0,0,0,.2,0,.3,0,.3,0,.6,0,.7,.2,.2,.1,.3,.3,.4,.6,.3,.8,.6,1.5,.9,2.3,.3,.8,.6,1.5,1,2.3,0,.1,0,.3,.1,.4,0,.1,0,.3,.1,.4,.2,.7,.5,1.3,.7,1.9,.2,.6,.5,1.3,.7,1.9,.2,.4,.3,.9,.4,1.3,.1,.4,.3,.9,.4,1.3,.1,.4,.2,.7,.4,1.1,.1,.4,.2,.7,.4,1.1m-3.4-5.5c0-.2-.1-.4-.3-.8-.1-.4-.3-.8-.5-1.2-.2-.5-.4-1-.6-1.5-.2-.5-.4-1-.6-1.5-.2-.5-.3-.9-.5-1.3-.1-.4-.2-.6-.3-.8-.3,.6-.5,1.2-.8,1.8-.3,.6-.5,1.2-.8,1.8s-.5,1.2-.7,1.8c-.2,.6-.4,1.2-.6,1.9,.9,0,1.8,0,2.7-.1,.9,0,1.8,0,2.8-.1"/>
      <path class="uuid-20fbec20-f828-4708-a9d6-53d8e2d2d365" d="M143.3,35c.3,.6,.7,1.1,1,1.7,.3,.6,.7,1.1,1,1.7,.2,.3,.4,.6,.6,.9,.2,.3,.4,.6,.6,.9,0,0,0,0,0,.1,0,0,0,0,0,.1,0,0,0,.2,0,.3,0,0,0,.2,.1,.3,0,0,0,.2,0,.2,0,0,0,.2-.1,.2-.1,.1-.3,.2-.4,.2-.2,0-.3,0-.5,0s-.1,0-.2,0c0,0-.1,0-.2,0-.1-.4-.3-.9-.5-1.2-.2-.4-.4-.7-.6-1.1-.3-.5-.7-1-1-1.6-.3-.5-.6-1.1-.9-1.6,0,0,0-.1-.1-.2,0,0,0-.1-.1-.2,0-.3-.2-.5-.4-.6-.2,0-.4-.1-.7-.1s-.1,0-.1,0c-.4,0-.8,0-1.2,0-.4,0-.8,0-1.2,.1-.2,0-.4,0-.6,0-.2,0-.4,0-.6,0,0,.2,0,.4,0,.7,0,.3,0,.7,0,1.1,0,.4,0,.8,0,1.2,0,.4,0,.8,0,1.2,0,.4,0,.7,.1,1,0,.3,0,.5,.1,.7-.1,0-.2,0-.3,.1-.1,0-.2,0-.3,0s-.3,0-.5,0c-.2,0-.3,0-.5,0,0-.2,0-.5,0-.7,0-.2,0-.4,0-.6,0-1,0-2,0-3,0-.5,0-1,0-1.6,0-.5,0-1,0-1.6,0-.5,0-1,0-1.4,0-.5,0-.9,0-1.4,0-.7,0-1.4,0-2.1,0-.7,0-1.4,0-2.1,0-.1,0-.2,0-.3,0,0,0-.1,0-.1,0,0,0,0,.1,0,0,0,.1,0,.3,0,.3,0,.7,0,1-.1,.3,0,.6,0,1,0s.6,0,1,0,.7,0,1,0c.3,0,.7,0,1,.1,.3,0,.7,0,1,.1,.3,0,.6,.1,.9,.2,.3,.1,.6,.2,.8,.4,.6,.3,1.1,.8,1.4,1.3,.3,.6,.5,1.2,.6,1.9,0,.5,0,.9,0,1.3s-.2,.8-.4,1.2c0,.2-.2,.5-.4,.7-.2,.2-.4,.4-.6,.6-.2,.2-.5,.4-.7,.5-.3,.2-.5,.3-.7,.4m-5.8-1.3c.5,0,1,.1,1.4,.2,.5,0,.9,0,1.4,.1,0,0,.2,0,.2,0,0,0,.2,0,.2,0,.6,0,1.2,0,1.7-.3,.5-.2,1.1-.5,1.5-1,.3-.3,.6-.6,.7-1,.2-.4,.2-.8,.2-1.2,0-.5-.2-.9-.5-1.3-.2-.4-.6-.7-1-1,0,0-.2-.1-.3-.2,0,0-.2-.1-.3-.2,0,0-.2,0-.4-.1-.2,0-.4,0-.7-.1-.3,0-.5,0-.8,0-.3,0-.6,0-.9,0-.3,0-.6,0-.8,0-.3,0-.5,0-.7,0s-.2,0-.3,0c0,0-.1,0-.2,0-.1,0-.2,0-.3,0,0,0-.1,0-.2,0,0,0,0,.1,0,.2,0,0,0,.2,0,.3v5.5Z"/>
      <path class="uuid-20fbec20-f828-4708-a9d6-53d8e2d2d365" d="M161.2,27.4c-.4,0-.8,.1-1.2,.1s-.3,0-.5,0c-.2,0-.5,0-.7,0-.2,0-.5,0-.7,0h-.9c-.4,0-.8,0-1.1,0h-2.9c0,1,0,1.9,.1,2.9,0,.9,0,1.9,.1,2.9,.6,0,1.1,0,1.6-.1,.5,0,1,0,1.6,0,.1,0,.3,0,.4,0,.1,0,.3,0,.4,0,.4,0,.7,0,1.1,0,.4,0,.7,0,1.1,0,.2,0,.4,0,.5,.1,0,0,0,.2,0,.5,0,.1,0,.3,0,.4,0,.1,0,.3,0,.4-.2-.1-.4-.2-.6-.2-.2,0-.4,0-.6,0s-.3,0-.5,0c-.2,0-.3,0-.5,0h0c-.7,0-1.4,0-2.1,0-.7,0-1.4,0-2,0,0,0,0,0,0,0s0,0,0,0c0,0,0,0-.1,0v5.8c.9,0,1.7,0,2.6,0,.9,0,1.7,0,2.6,0h0c.2,0,.5,0,.7,0,.2,0,.5,0,.7,0s0,0,0,0c0,0,0,0,0,0,.3,0,.6,.1,.7,.3,.2,.2,.2,.5,.2,.8,0,0-.2,0-.2,0,0,0-.2,0-.2,0h-.1s0,0-.1,0c-.8,0-1.7,0-2.5,0-.8,0-1.6,0-2.5,0-.4,0-.8,0-1.1,0-.4,0-.7,0-1.1,0h0c-.1,0-.3,0-.4,0-.1,0-.3,0-.4,0-.1,0-.2-.1-.2-.2,0,0,0-.2,0-.3,0-.4,0-.7,0-1.1,0-.4,0-.7,0-1.1,0-.7,0-1.5,0-2.2,0-.3,0-.7,0-1,0-.3,0-.6,0-1,0-.7,0-1.4-.1-2.1,0-.7,0-1.4-.1-2.1,0-.5,0-1.1,0-1.6,0-.5,0-1.1,0-1.6,0-.2,0-.4,0-.5,0-.1,.1-.2,.2-.3,.1,0,.2,0,.4,0,.1,0,.3,0,.5,0s.3,0,.5,0c.2,0,.3,0,.5,0,.8,0,1.5,0,2.3,0,.8,0,1.5,0,2.3,0h.5c.2,0,.3,0,.5,0,.1,0,.3,0,.4,0h.4c0-.1,.1-.1,.2-.1,0,0,0,0,.1,0,0,0,.2,0,.2,0,0,0,0,.2,.1,.3,0,.1,0,.3,.1,.4,0,.1,0,.3,.1,.4"/>
      <path class="uuid-20fbec20-f828-4708-a9d6-53d8e2d2d365" d="M174.7,30.7c0-.1,0-.3-.1-.4,0-.1,0-.3-.1-.4-.2-.7-.6-1.2-1.1-1.6-.5-.3-1.1-.6-1.8-.7-.2,0-.4,0-.7,0-.2,0-.4,0-.7,0s-.5,0-.7,0c-.2,0-.5,.1-.7,.2-.2,.1-.4,.2-.6,.4-.2,.2-.4,.3-.5,.5-.1,.2-.2,.5-.3,.7,0,.2,0,.5,0,.7,0,.2,.2,.5,.3,.7,.1,.2,.3,.4,.5,.6,.4,.3,.8,.6,1.3,.7,.4,.2,.9,.3,1.4,.5,.7,.2,1.5,.5,2.2,.7,.7,.3,1.4,.6,2.1,1,.2,.1,.3,.2,.5,.4,.1,.1,.2,.3,.3,.5,0,.2,.2,.3,.2,.5,0,.2,.1,.4,.2,.5,0,.2,0,.3,.1,.5,0,.2,0,.3,0,.5,0,.2,0,.3-.1,.5,0,.2-.1,.3-.2,.5-.1,.3-.3,.6-.4,.8-.2,.2-.4,.5-.6,.7-.2,.2-.4,.4-.7,.6s-.5,.4-.7,.6c-.1,0-.2,.2-.4,.2-.1,0-.3,.1-.4,.2-.1,0-.3,.1-.4,.2-.1,0-.2,.1-.3,.2-.3,0-.5,0-.8,0-.2,0-.5,0-.7,0-.5,0-.9-.1-1.4-.2-.5,0-.9-.1-1.4-.2,0,0-.2,0-.3,0,0,0-.2,0-.2-.2-.2-.2-.5-.5-.7-.7-.2-.2-.4-.5-.6-.8-.2-.3-.4-.5-.5-.8-.2-.3-.3-.6-.4-.9,0-.1,0-.3,0-.3s0-.2,0-.2c0,0,0-.1,.2-.1,0,0,.2,0,.3,0,.1,0,.3,0,.4,0,.1,0,.3,0,.5,0,0,.1,0,.2,.1,.3,0,.1,0,.2,0,.3,.1,.7,.5,1.3,1,1.7,.5,.4,1.1,.7,1.8,.8,.5,0,1,0,1.5,0s.6,0,.8,0c.3,0,.5,0,.8-.1,.3,0,.5-.2,.7-.3,.2-.1,.4-.3,.6-.5,0-.1,.2-.2,.2-.4,0-.2,0-.3,0-.5,0-.4,0-.8-.2-1.1,0-.4-.3-.7-.5-1-.1-.2-.3-.3-.5-.4-.6-.2-1.1-.5-1.7-.7-.6-.2-1.1-.4-1.7-.6-.5-.2-1-.4-1.4-.6-.4-.3-.9-.5-1.3-.8-.2-.2-.4-.3-.6-.5-.2-.2-.3-.4-.3-.7,0,0,0-.2,0-.3,0,0,0-.2-.1-.3,0-.2-.2-.4-.2-.5,0-.2,0-.4,.1-.6,0,0,0,0,0,0,0,0,0,0,0-.1,0-.4,0-.7,.1-1.1,0-.3,.2-.6,.4-.9s.4-.5,.7-.7c.3-.2,.5-.4,.8-.7,.3-.2,.7-.4,1-.5,.3,0,.7-.1,1.1-.1s.4,0,.7,0c.2,0,.4,0,.7,0,.3,0,.5,0,.7,.1s.5,.2,.7,.3c.2,.1,.4,.2,.6,.4,.2,.1,.4,.3,.6,.4,.1,0,.3,.3,.5,.5,.2,.3,.3,.6,.5,.9,.2,.3,.3,.6,.5,.9,.1,.3,.2,.5,.3,.7,0,.3,.1,.4,0,.5,0,.1-.3,.2-.5,.2h0c0,0-.2,0-.3,0,0,0-.2,0-.3,0"/>
      <path class="uuid-20fbec20-f828-4708-a9d6-53d8e2d2d365" d="M19.1,56.9c-.5-.3-.6-.4-.7-.8,0-.2-.2-.5-.2-.6,0-.2,0-1,0-1.1,0,0,0,0,0,0,0,0,0,0,0,0,0,0,0,0,0,0,0,0,0,0,0,0,0,0,0,0,0,0,0,0,0,0,0,0,0,0,0-.3,0-.6-.1-1.9-.2-3.2-.2-6.4,0-2.2,0-3.3,.2-5.1,.1-1.8,.1-1.9,.2-3.9,0-2.2,0-1.9,.2-3.3,0-.6,.1-1.4,.1-1.8,0-.8,0-.8-.5-1-.4-.1-.4-.1-.7-.1-.5,0-1.9,0-2.4,0-.4,0-2.4-.3-3-.3-.2,0-.8-.1-1.4-.2-1.1-.2-1.8-.3-3-.4-.4,0-1-.1-1.4-.1-1.7-.2-2.8-.2-5.1,0-.9,0-.9,0-.9-.2,0-.3,0-.3,1.2-.4,1.9-.2,4.4-.3,6.3-.3,1.6,0,3.9,.1,4.8,.2,.1,0,0,0-.8-.4-1.3-.5-2.3-.9-3.4-1.4-1-.5-1.4-.7-2.3-1.3-.3-.2-1-.6-1.4-.8-1.5-.9-2.8-1.7-2.9-1.9,0,0,0-.2,.2-.2,0,0,.3,0,.6,.1,.3,0,.8,.2,1.2,.3,1,.2,1.4,.3,2.5,.7,1.5,.5,2.6,1,3.7,1.7,.3,.2,.6,.3,.6,.3,0,0,0,0,0,0,0,0-1.1-1-1.7-1.5-.7-.6-1.9-2-2.4-2.5-1.1-1.3-2.7-3.5-3.2-4.2-.2-.4-.3-.8-.1-.8,.2,0,.5,.3,2,1.6,.5,.5,1.2,1.1,1.6,1.5,.4,.3,1,.9,1.4,1.2,.4,.3,.7,.6,.7,.6,0,0-.2-.2-.3-.4-.4-.5-.8-.9-1-1.3-.4-.6-1-1.6-1.3-2.1-.7-1.2-1.8-3.2-2.1-3.7-.3-.5-.4-.7-.2-.7,0,0,0,0,.1,0,0,0,1.3,1.2,1.7,1.7,1,1.1,1.6,1.8,2.1,2.4l.6,.7-1-2.1c-.5-1.2-1.1-2.5-1.3-3-.2-.5-.4-1-.5-1.2-.3-.8-.7-2-.6-2.2,0,0,0-.1,0-.1,.2,0,.4,.1,1.3,1.4,.3,.5,.8,1.1,1,1.4s.6,.9,.9,1.3c.3,.4,.7,1,1,1.4,.8,1,1.2,1.6,2.1,3,.3,.4,.3,.5,.3,.3,0-.2-.3-.6-.4-.9-.2-.6-.5-1.3-.9-2.3-.1-.3-.3-.8-.5-1.1-.1-.3-.4-1.1-.7-1.7-.3-.6-.6-1.6-.9-2.2-.5-1.2-.9-2.3-1.5-3.5-.4-.9-.5-1.1-.3-1.1,.2,0,.3,0,.7,.7,1.4,2,3,4.7,3.9,6.5,.2,.3,.5,1,.7,1.6,.4,.9,.7,1.7,1.4,3.2l.2,.5-.2-.5c0-.3-.3-1.1-.6-1.8-.2-.7-.5-1.4-.5-1.6,0-.2-.3-1-.5-1.8-.5-1.7-.6-2.6-1-4.3-.1-.8-.3-1.6-.4-1.9,0-.3-.2-.9-.2-1.2-.1-.9-.3-1.8-.5-2.6,0-.4-.2-.8-.2-.9,0-.2,0-.2,0-.2,.2,0,.2,0,.5,.7,.2,.4,.6,1.3,1,2.1,.4,.8,1,2.1,1.3,3,.3,.8,.7,1.8,.9,2.2,.7,1.6,.8,1.9,1.2,2.9,.2,.5,.4,1,.4,1,0,0,0-.9-.2-1.9-.1-1.1-.2-2-.2-2.2,0-.1-.1-.9-.2-1.6-.2-1.7-.3-2.5-.3-3.4,0-1.8,0-2.9,0-3,0,0,0,0,.1,0,0,0,.1,0,.2,.4,0,.2,.2,.8,.4,1.3,.6,2,.9,3.3,1.4,5.5,.2,.8,.3,1.6,.4,1.8,.2,.8,1.1,4.8,1.2,4.8,0,0,0,0,0-.3,0-.5,.1-2.1,.2-3,.2-2,.7-4.6,1.2-6.8,0-.4,.2-1,.3-1.3,0-.3,.3-1.2,.5-2,.4-1.6,.5-2,.5-2.5,0-.5,0-.6,.2-.5,0,0,0,0,0,.5,0,.2,0,.9-.1,1.4,0,.6-.1,1.2-.1,1.4-.1,1.1-.3,5.3-.2,6.8,0,.3,0,1.6,0,2.7,0,1.9,0,3.7,0,3.8,0,0,0,0,0,0,0,0,0-.3,.1-.7,0-.4,.1-1,.2-1.4,0-.5,.1-.7,0-.8,0-.2,0-.3,.3-1.3,.2-.5,.3-1.1,.4-1.4,0-.2,.2-.6,.3-.8,0-.2,.2-.5,.2-.8,.1-.7,.5-2.3,.7-3.1,0-.1,.1-.5,.2-.8,.1-.5,.1-.5,.2-.6,.1,0,.2,0,.2,.4,0,.2,0,.6-.1,.9,0,.5,0,.6,0,.6,0,0,0,0,0,.5,0,.6-.1,1.1-.1,1.2,0,0,0,.4,0,.8,0,.6,0,.7,0,.8,.1,0,.1,.2,0,.9,0,.4,0,.6,0,.6,0,0,0-.3,.2-.6,.5-1.9,.9-3,1.5-5.1,.3-.8,.5-1.7,.6-2,.2-.8,.3-.9,.4-.8,.2,0,.2,0,.2,.5-.1,2-.6,4.9-1.3,8.3-.5,2.2-.9,4.3-1.1,6,0,.2,0,.2,0,.1,1.1-2.9,3.6-7.7,5.4-10.8,.5-.8,2-3.1,2.1-3.2,0,0,.1,0,.2,0,0,0,.1,0,.2,0,0,0,0,.3-.2,.8-.3,.8-.6,1.9-1.1,3.8-.4,1.6-.7,2.6-1.5,4.7-.7,1.9-.9,2.3-1.7,4.2-.2,.3-.3,.6-.3,.6,0,0,.3-.4,.6-.8,2.1-3.3,2.4-3.7,4.3-6,1-1.3,1.8-2.2,1.9-2.2,.1,0,.2,0,.3,.1,0,0-.1,.4-.6,1.2-.7,1.1-1.3,2.2-2.1,3.7-.7,1.3-2,3.9-2.6,5-.3,.5-.5,.9-.5,.9,0,0,0,0,.1-.1,.2-.3,1.2-1.4,1.7-2,1.1-1.2,1.7-1.7,3.5-3.2,1.2-1,1.7-1.3,2.4-1.8,.5-.3,.6-.4,.8-.3,0,0,0,.2-.4,.7-.2,.3-.7,.9-1,1.5-1.3,2-1.8,2.6-3.1,4.1-.4,.5-1.1,1.3-1.4,1.7-.3,.4-.7,.8-.8,1-.1,.1-.2,.3-.2,.3,0,0,.3-.2,.6-.5,1.7-1.3,3.1-2.2,5.1-3.3,.8-.4,.9-.5,1-.5,.2,0,.1,.1,0,.3,0,0-.4,.4-.7,.8-.9,1-4.1,3.9-5.7,5.2-1.7,1.4-5.5,5-5.5,5.1,0,0,.5-.3,1-.7,1.6-1,3.3-2.1,5-2.9,1.1-.6,3.9-1.9,5-2.3,1.1-.4,2.2-.8,3.3-1.2,.5-.2,.7-.2,.7-.1,0,0,.1,0,0,.2,0,0-.1,.2-.4,.3-.2,0-.6,.4-.9,.6-.4,.2-.9,.6-1.3,.8-1,.6-5.1,3-6.3,3.7-.3,.2-.6,.4-.6,.4,0,0,.2,0,.5-.2,1.4-.5,1.9-.7,3.8-1.3,.9-.3,1.9-.5,2-.5,.2,0,.3,.1,.3,.2,0,0,0,.2-.3,.3-.6,.4-1.2,.8-4,2-3,1.4-3.9,1.8-5.1,2.2-1,.4-1.1,.4-.9,.4,1.6-.3,3.4-.6,4.4-.7,2.1-.2,5.9-.3,6.1-.2,.1,0,0,.2,0,.3-.2,.2-1.1,.4-4.1,.9-3.7,.7-5.5,.9-8.5,1-.4,0-1.4,.1-2.2,.2-.8,0-1.5,.2-1.7,.1-.4,0-.4,0-.4,.8,0,.4,0,1.1,0,1.7,.1,3.6,.1,5.1-.2,9.6-.1,2-.2,3.6-.2,4.5,0,.7,.2,2.2,.3,3.4,.2,1.6,.4,3.8,.4,4.1,0,.1-.1,.3-.2,.3,0,0-.1,0-.3-.2Zm7-38.7s0,0,0,0c0,0,0,0,0,0,0,0,0,0,0,0"/>
    </g>
  </g>
</svg>